<?xml version="1.0" standalone="no"?>
<!DOCTYPE svg PUBLIC "-//W3C//DTD SVG 20010904//EN"
 "http://www.w3.org/TR/2001/REC-SVG-20010904/DTD/svg10.dtd">
<svg version="1.0" xmlns="http://www.w3.org/2000/svg"
 width="1920.000000pt" height="1100.000000pt" viewBox="0 0 1920.000000 1100.000000"
 preserveAspectRatio="xMidYMid meet">

<g transform="translate(0.000000,1100.000000) scale(0.100000,-0.100000)"
fill="#000000" stroke="none">
<path d="M0 5500 l0 -5500 9600 0 9600 0 0 5500 0 5500 -9600 0 -9600 0 0
-5500z m19040 4740 c0 -5 -7 -10 -16 -10 -8 0 -12 5 -9 10 3 6 10 10 16 10 5
0 9 -4 9 -10z m-15992 -800 c85 -64 112 -90 112 -107 0 -18 -6 -23 -25 -23
l-25 0 0 -115 0 -115 25 0 c20 0 25 -5 25 -25 l0 -25 -230 0 -230 0 0 25 c0
20 5 25 25 25 l25 0 0 115 0 115 -26 0 c-21 0 -25 4 -22 24 2 17 35 49 113
109 61 47 112 85 115 84 3 -1 56 -40 118 -87z m1392 -125 c0 -23 -4 -25 -45
-25 l-45 0 0 -120 0 -120 -30 0 -30 0 0 120 0 120 -45 0 c-41 0 -45 2 -45 25
l0 25 120 0 120 0 0 -25z m540 -26 c0 -50 0 -50 22 -35 34 24 73 20 97 -10 17
-22 21 -41 21 -110 l0 -84 -30 0 -29 0 -3 76 c-2 60 -7 79 -20 88 -13 8 -23 8
-35 0 -14 -9 -19 -28 -21 -88 l-3 -76 -29 0 -30 0 0 145 0 145 30 0 c29 0 30
-1 30 -51z m-1470 6 c0 -18 5 -25 20 -25 15 0 20 -7 20 -25 0 -18 -5 -25 -20
-25 -18 0 -20 -7 -20 -59 0 -50 3 -59 20 -64 12 -3 20 -14 20 -26 0 -17 -6
-21 -34 -21 -53 0 -66 20 -66 101 0 55 -3 69 -15 69 -9 0 -15 9 -15 25 0 16 6
25 15 25 9 0 15 9 15 25 0 21 5 25 30 25 25 0 30 -4 30 -25z m-270 -93 c0 -78
14 -106 51 -100 23 3 24 7 27 86 l3 82 29 0 30 0 0 -110 0 -110 -25 0 c-16 0
-25 6 -25 16 0 14 -2 14 -22 0 -32 -22 -81 -20 -103 4 -15 16 -20 42 -23 110
l-4 90 31 0 31 0 0 -68z m410 -1 c0 -84 6 -101 34 -101 37 0 46 19 46 97 l0
73 30 0 30 0 0 -110 0 -110 -30 0 c-21 0 -30 5 -30 17 0 15 -1 15 -18 0 -25
-23 -78 -21 -102 3 -17 17 -20 33 -20 110 l0 90 30 0 30 0 0 -69z m250 59 c0
-7 6 -7 19 0 33 17 51 12 51 -15 0 -19 -5 -25 -23 -25 -38 0 -47 -19 -47 -97
l0 -73 -30 0 -30 0 0 110 0 110 30 0 c17 0 30 -5 30 -10z m241 0 c24 -13 49
-61 49 -95 0 -25 -1 -25 -75 -25 -76 0 -87 -6 -59 -34 18 -19 38 -20 65 -5 11
5 32 9 47 7 l27 -3 -27 -27 c-22 -23 -36 -28 -75 -28 -27 0 -58 7 -70 15 -28
20 -47 78 -39 120 13 66 98 106 157 75z m470 -19 c21 -22 29 -39 29 -65 l0
-36 -70 0 c-51 0 -70 -4 -70 -13 0 -34 56 -50 79 -23 11 14 61 10 61 -4 0 -22
-55 -50 -97 -50 -36 0 -50 6 -74 29 -24 25 -29 38 -29 78 0 76 34 111 108 112
24 1 42 -7 63 -28z m240 0 c16 -16 29 -34 29 -40 0 -17 -57 -13 -64 4 -7 18
-47 20 -64 3 -17 -17 -15 -84 4 -102 20 -21 30 -20 54 4 24 24 70 27 70 5 0
-9 -11 -27 -25 -40 -37 -37 -106 -35 -146 4 -25 25 -29 37 -29 81 0 44 4 56
29 81 23 23 38 29 71 29 33 0 48 -6 71 -29z m4404 -1231 c-3 -5 -14 -10 -23
-9 -14 0 -13 2 3 9 27 11 27 11 20 0z m-27 -132 c2 -15 13 -30 28 -36 13 -7
24 -18 24 -27 0 -20 36 -19 44 1 11 28 7 33 -28 39 -32 7 -55 38 -36 50 4 3
10 -3 12 -13 4 -15 14 -18 47 -16 23 1 45 4 48 8 10 9 23 7 23 -4 0 -5 -7 -10
-16 -10 -11 0 -14 -6 -9 -20 5 -15 2 -20 -12 -21 -15 0 -14 -2 5 -9 30 -12 29
-32 -2 -24 -13 3 -27 1 -30 -5 -4 -6 -16 -11 -27 -11 -16 0 -19 -5 -14 -19 3
-11 0 -23 -7 -27 -6 -4 -14 -2 -16 4 -2 7 -10 12 -18 12 -8 0 -11 -6 -8 -15 4
-8 17 -15 30 -15 22 0 28 -8 22 -27 -2 -5 -7 -7 -13 -5 -5 2 -1 -6 9 -17 19
-21 19 -21 -2 -21 -15 0 -24 -8 -28 -25 -7 -30 -24 -33 -31 -5 -6 24 -26 27
-21 4 2 -9 12 -22 23 -28 11 -6 24 -17 28 -24 6 -9 13 -9 28 -2 14 8 19 7 19
-1 0 -7 8 -21 17 -31 16 -18 16 -19 -5 -25 -30 -7 -28 -31 4 -39 15 -4 23 -12
20 -20 -3 -7 -1 -16 5 -20 6 -3 8 -12 5 -20 -3 -8 -1 -14 4 -14 6 0 10 4 10 9
0 17 39 -1 45 -20 7 -23 25 -25 25 -4 0 24 17 17 24 -10 7 -28 26 -34 26 -7 0
12 8 17 25 17 19 0 25 -5 25 -22 0 -26 3 -26 133 -15 59 6 77 5 77 -5 0 -7
-10 -13 -23 -13 -13 0 -28 -5 -34 -11 -8 -8 -14 -7 -24 3 -13 14 -69 12 -69
-2 0 -13 29 -20 36 -8 5 7 11 5 20 -6 7 -10 17 -15 23 -12 5 4 12 2 15 -3 11
-17 -18 -26 -90 -27 -74 -2 -137 -27 -179 -74 -10 -11 -24 -20 -31 -20 -7 0
-19 -6 -26 -14 -8 -8 -26 -11 -45 -9 -29 5 -32 8 -26 34 7 35 -2 37 -28 7 -10
-13 -18 -18 -19 -11 0 16 -40 4 -40 -13 0 -8 10 -14 23 -14 13 0 27 -3 31 -7
4 -5 12 -9 17 -9 5 -1 14 -2 19 -3 13 -1 13 -28 0 -36 -6 -4 -17 -2 -25 5 -10
8 -15 8 -22 -2 -5 -8 -28 -13 -58 -13 -46 0 -50 -2 -48 -23 2 -19 -1 -21 -21
-16 -22 5 -30 0 -62 -38 -6 -8 -9 -19 -6 -26 3 -9 -7 -11 -37 -6 -25 4 -41 3
-41 -4 0 -11 -30 -22 -72 -28 -20 -3 -28 1 -28 12 0 8 -4 12 -10 9 -5 -3 -10
-2 -10 4 0 5 -18 12 -40 16 -22 4 -40 11 -40 16 0 5 3 9 8 9 4 0 15 12 25 25
l18 25 -26 -12 c-14 -6 -25 -16 -25 -21 0 -5 -7 -4 -15 3 -8 7 -12 16 -9 21 3
5 -11 9 -30 9 -19 0 -38 5 -41 10 -3 6 3 10 13 10 15 0 21 9 25 33 7 48 0 56
-41 50 -20 -3 -44 -9 -53 -14 -27 -14 -28 0 -3 47 31 58 31 73 -1 66 -22 -4
-24 -8 -19 -41 4 -30 2 -38 -17 -49 -18 -12 -23 -12 -30 -1 -4 8 -4 18 1 23
19 19 11 38 -11 31 -15 -5 -19 -4 -15 4 7 11 -11 16 -48 12 -14 -1 -17 4 -13
19 6 22 -3 26 -20 9 -8 -8 -11 -7 -10 4 3 26 -17 21 -33 -9 -18 -31 -47 -48
-37 -21 11 29 -49 48 -83 27 -17 -10 -10 -20 17 -24 10 -2 19 -11 21 -20 3
-14 -1 -16 -23 -10 -22 5 -26 3 -23 -11 2 -10 -2 -20 -9 -22 -7 -3 -9 3 -6 18
5 19 4 20 -15 10 -13 -7 -21 -20 -19 -33 1 -11 -4 -23 -10 -25 -22 -8 -10 48
14 67 29 23 29 25 -3 26 -51 3 -40 28 19 41 15 3 32 14 38 25 8 15 17 18 35
14 13 -4 24 -2 24 3 0 5 11 11 24 13 18 4 22 1 19 -13 -3 -9 0 -20 6 -23 6 -4
11 -2 11 3 0 6 7 11 15 11 8 0 15 9 15 20 0 16 7 20 31 20 20 0 29 4 26 13 -2
6 -14 11 -25 9 -31 -5 -38 22 -14 49 11 11 18 27 15 35 -3 8 1 14 11 14 9 0
16 5 16 10 0 6 9 10 19 10 10 0 29 11 42 25 13 13 34 25 45 25 12 0 28 8 35
17 12 15 12 16 -6 9 -28 -12 -135 -15 -141 -4 -3 4 6 8 20 8 14 0 28 5 31 10
4 6 11 8 16 5 5 -4 16 0 24 8 8 9 23 13 34 10 20 -5 38 27 26 47 -3 5 -2 10 4
10 5 0 13 -4 16 -10 3 -5 13 -10 22 -10 11 0 14 6 9 25 -4 14 -2 25 4 25 5 0
10 -4 10 -9 0 -12 43 -1 52 12 3 6 15 12 25 13 35 4 65 13 77 23 6 5 25 11 41
13 27 3 35 21 10 24 -5 0 -16 2 -22 2 -7 1 -13 6 -13 10 0 4 28 8 63 7 52 0
62 3 61 17 -1 10 1 16 5 15 3 0 15 4 27 10 12 7 38 13 59 15 20 1 39 8 42 15
3 7 10 13 17 13 6 0 18 9 25 19 19 26 55 13 59 -21z m92 38 c0 -3 -4 -8 -10
-11 -5 -3 -10 -1 -10 4 0 6 5 11 10 11 6 0 10 -2 10 -4z m-575 -147 c3 -4 -11
-9 -32 -12 -39 -7 -49 -4 -39 11 6 10 61 11 71 1z m65 -9 c0 -5 -2 -10 -4 -10
-3 0 -8 5 -11 10 -3 6 -1 10 4 10 6 0 11 -4 11 -10z m570 1 c0 -13 -19 -24
-47 -27 -22 -3 -31 14 -16 29 10 11 63 8 63 -2z m525 -31 c3 -5 -3 -10 -14
-10 -12 0 -21 5 -21 10 0 6 6 10 14 10 8 0 18 -4 21 -10z m-1280 -30 c-3 -5
-11 -10 -16 -10 -6 0 -7 5 -4 10 3 6 11 10 16 10 6 0 7 -4 4 -10z m1459 -15
c6 -17 4 -18 -18 -9 -20 8 -21 24 -2 24 8 0 16 -7 20 -15z m-776 -82 c2 -8 -5
-13 -17 -13 -21 0 -35 13 -24 24 10 10 36 3 41 -11z m782 -13 c0 -5 -4 -10
-10 -10 -5 0 -10 5 -10 10 0 6 5 10 10 10 6 0 10 -4 10 -10z m-1630 -25 c0 -9
-6 -12 -15 -9 -8 4 -15 10 -15 15 0 5 7 9 15 9 8 0 15 -7 15 -15z m1825 5 c3
-5 2 -10 -4 -10 -5 0 -13 5 -16 10 -3 6 -2 10 4 10 5 0 13 -4 16 -10z m-1873
-142 c-6 -6 -15 -8 -19 -4 -4 4 -1 11 7 16 19 12 27 3 12 -12z m2372 6 c9 -3
16 -12 16 -20 0 -17 -26 -8 -34 12 -6 16 -4 17 18 8z m-2529 -24 c-3 -5 -11
-10 -16 -10 -19 0 -69 -55 -69 -76 0 -22 -36 -52 -87 -73 -37 -15 -52 -41 -24
-41 10 0 21 -9 24 -20 6 -22 -8 -28 -16 -7 -3 9 -16 12 -35 9 -23 -3 -30 -9
-27 -22 3 -13 -1 -17 -11 -13 -23 8 -16 28 19 59 18 16 36 36 40 46 3 9 18 19
34 22 45 10 72 37 75 73 2 26 6 32 19 28 10 -3 21 0 26 8 7 13 27 24 46 26 5
1 5 -3 2 -9z m1325 -20 c0 -5 -7 -10 -15 -10 -8 0 -15 5 -15 10 0 6 7 10 15
10 8 0 15 -4 15 -10z m1505 0 c3 -5 2 -10 -4 -10 -5 0 -13 5 -16 10 -3 6 -2
10 4 10 5 0 13 -4 16 -10z m-2695 -20 c0 -5 -4 -10 -9 -10 -6 0 -13 5 -16 10
-3 6 1 10 9 10 9 0 16 -4 16 -10z m2355 -12 c19 -13 35 -29 35 -35 0 -19 -8
-16 -38 12 -15 14 -32 25 -39 25 -7 0 -13 5 -13 10 0 16 17 12 55 -12z m-2514
-21 c-10 -9 -11 -8 -5 6 3 10 9 15 12 12 3 -3 0 -11 -7 -18z m2659 -13 c0 -8
-6 -11 -15 -8 -8 4 -15 12 -15 20 0 8 6 11 15 8 8 -4 15 -12 15 -20z m-2610
12 c0 -3 -4 -8 -10 -11 -5 -3 -10 -1 -10 4 0 6 5 11 10 11 6 0 10 -2 10 -4z
m2425 -6 c3 -5 1 -10 -4 -10 -6 0 -11 5 -11 10 0 6 2 10 4 10 3 0 8 -4 11 -10z
m7815 -10 c0 -5 -7 -10 -16 -10 -8 0 -12 5 -9 10 3 6 10 10 16 10 5 0 9 -4 9
-10z m-10383 -96 c-9 -9 -28 6 -21 18 4 6 10 6 17 -1 6 -6 8 -13 4 -17z m43
10 c0 -8 -5 -12 -10 -9 -6 4 -8 11 -5 16 9 14 15 11 15 -7z m330 -23 c0 -17
-12 -41 -21 -41 -10 0 -12 33 -2 43 9 10 23 9 23 -2z m-395 -21 c3 -5 1 -10
-4 -10 -6 0 -11 5 -11 10 0 6 2 10 4 10 3 0 8 -4 11 -10z m349 -25 c3 -9 0
-15 -9 -15 -16 0 -27 14 -18 24 10 10 21 7 27 -9z m-529 -24 c-3 -6 -11 -8
-17 -5 -6 4 -5 9 3 15 16 10 23 4 14 -10z m46 6 c-1 -12 -15 -9 -19 4 -3 6 1
10 8 8 6 -3 11 -8 11 -12z m599 -11 c-1 -5 4 -12 10 -16 7 -5 8 -10 3 -13 -15
-9 -47 18 -39 32 9 13 28 11 26 -3z m-60 -16 c0 -5 -7 -7 -15 -4 -8 4 -15 8
-15 10 0 2 7 4 15 4 8 0 15 -4 15 -10z m2810 0 c0 -6 18 -30 41 -55 24 -26 38
-49 34 -57 -4 -7 0 -5 8 5 15 18 16 18 36 -2 12 -12 21 -29 21 -40 0 -21 25
-46 37 -38 5 3 17 -2 28 -10 14 -11 16 -17 8 -20 -7 -3 -13 -12 -13 -20 0 -9
6 -13 15 -9 16 6 41 -30 36 -52 -1 -8 7 -16 18 -19 12 -3 21 -14 21 -24 0 -10
5 -21 10 -24 8 -5 7 -11 -1 -21 -10 -13 -6 -18 14 -15 4 0 7 -16 7 -36 l0 -38
15 29 c8 15 12 33 8 39 -3 5 -1 7 4 4 18 -11 36 -114 21 -123 -4 -3 -8 -10 -8
-15 0 -6 5 -7 10 -4 6 3 10 -3 10 -15 0 -13 -4 -19 -12 -14 -7 4 -8 3 -4 -5 4
-6 2 -18 -4 -26 -10 -12 -10 -15 1 -15 12 0 12 -2 0 -9 -7 -5 -10 -14 -7 -20
4 -6 12 -9 17 -6 19 12 29 -6 12 -23 -12 -12 -18 -13 -21 -4 -6 19 -22 4 -22
-21 0 -12 9 -28 20 -35 12 -7 18 -17 14 -23 -3 -6 -11 -3 -20 8 -11 16 -13 8
-13 -56 1 -41 4 -69 9 -62 5 9 9 8 14 -4 4 -11 0 -22 -11 -30 -15 -11 -16 -16
-3 -41 13 -28 14 -28 18 -6 4 23 21 31 23 10 0 -8 3 -7 6 2 3 8 15 25 26 37
l20 22 -27 7 c-14 3 -26 10 -26 16 0 8 38 2 49 -8 8 -7 19 -88 14 -101 -3 -8
-12 -12 -19 -9 -11 4 -11 0 -2 -20 12 -25 12 -25 20 -5 12 35 30 25 23 -13 -4
-20 -2 -36 4 -40 6 -4 11 -18 11 -31 0 -29 20 -75 32 -75 6 0 7 17 3 40 -5 32
-4 40 8 40 9 0 19 -10 23 -22 3 -13 13 -31 22 -40 11 -13 12 -21 4 -31 -6 -7
-10 -33 -8 -57 1 -31 -3 -49 -13 -57 -14 -12 -14 -14 2 -27 13 -10 17 -21 12
-35 -5 -18 -2 -21 22 -21 l28 0 0 -75 c0 -41 3 -75 7 -75 13 0 3 -66 -15 -93
-16 -25 -16 -26 3 -32 11 -4 20 -13 20 -21 0 -8 4 -12 10 -9 6 3 7 -1 4 -10
-4 -8 -1 -22 6 -30 12 -15 6 -35 -11 -35 -5 0 -9 6 -9 14 0 27 -19 27 -26 1
-5 -19 -1 -30 11 -39 15 -11 16 -16 5 -35 -6 -13 -10 -36 -8 -52 4 -28 -1 -33
-29 -30 -18 3 -16 -6 6 -28 19 -19 24 -82 8 -108 -4 -7 -5 -24 -1 -38 4 -15 2
-25 -5 -25 -6 0 -11 7 -11 16 0 9 -7 14 -17 12 -12 -2 -16 -14 -16 -43 0 -25
-6 -45 -16 -53 -15 -11 -14 -12 0 -6 26 8 30 -10 14 -55 -13 -37 -13 -43 0
-47 8 -4 15 -16 15 -28 0 -16 -7 -21 -30 -23 -19 -1 -33 3 -36 12 -8 20 -28
-1 -37 -37 -6 -22 -4 -26 8 -22 10 4 15 0 15 -10 0 -9 -3 -15 -7 -14 -10 4
-12 -12 -5 -31 3 -7 0 -16 -6 -20 -6 -3 -15 -19 -21 -34 -7 -17 -15 -25 -25
-21 -9 3 -19 -3 -26 -16 -7 -12 -18 -19 -25 -16 -8 3 -17 1 -21 -5 -3 -6 -12
-8 -19 -5 -9 3 -15 -7 -19 -30 -5 -25 -12 -34 -27 -34 -11 0 -18 -4 -15 -9 4
-5 29 -8 56 -6 28 2 50 -1 50 -7 0 -5 -4 -6 -10 -3 -5 3 -10 -2 -10 -11 0 -10
-3 -15 -6 -11 -7 7 -44 -29 -44 -43 0 -6 -3 -9 -7 -8 -5 2 -8 0 -8 -4 0 -10
-52 -48 -65 -48 -7 0 -10 7 -7 15 8 19 -10 30 -28 15 -9 -8 -15 -8 -20 0 -3 6
-11 8 -16 4 -5 -3 -7 -10 -3 -15 3 -5 9 -7 14 -4 5 3 11 1 14 -4 13 -21 -18
-23 -35 -2 -15 18 -21 20 -43 10 -34 -16 -35 -44 -2 -35 16 4 26 1 30 -9 3 -8
12 -15 21 -15 8 0 15 -4 15 -10 0 -6 -30 -8 -76 -6 -68 3 -77 2 -81 -15 -6
-20 -43 -27 -43 -8 0 6 -9 8 -22 3 -34 -11 -91 -11 -105 -1 -8 6 -13 6 -13 -1
0 -5 -9 -8 -20 -5 -28 8 -25 -4 12 -38 23 -21 28 -29 16 -29 -9 0 -20 5 -23
11 -4 6 -13 8 -20 5 -7 -2 -16 2 -19 11 -5 12 -9 13 -22 3 -11 -10 -18 -10
-26 -2 -18 18 -46 14 -60 -8 -16 -26 -24 -25 -31 1 -5 17 -12 21 -36 17 -16
-2 -28 -1 -25 4 9 14 -50 9 -100 -8 -26 -9 -50 -14 -52 -11 -7 7 50 37 71 37
19 0 19 14 -1 31 -16 13 -20 12 -86 -16 -13 -5 -18 -2 -18 9 0 9 -6 16 -12 16
-9 0 -8 3 2 10 9 6 17 5 22 -3 9 -14 13 -9 22 26 4 16 2 27 -4 27 -5 0 -10 -7
-10 -15 0 -8 -5 -15 -11 -15 -5 0 -7 5 -3 11 4 7 -3 19 -16 29 l-23 18 22 12
c22 11 22 12 4 25 -10 7 -21 11 -26 8 -12 -7 -47 37 -41 52 7 17 -24 85 -38
85 -6 0 -3 12 7 26 16 25 16 26 -4 19 -17 -5 -21 -2 -21 14 0 13 -6 21 -16 21
-12 0 -14 3 -6 13 13 15 -9 66 -34 80 -11 6 -12 13 -3 29 11 21 12 21 25 4 12
-17 13 -17 19 6 3 13 4 35 2 49 -6 31 6 54 23 44 7 -4 15 -3 19 2 3 5 17 16
30 25 23 16 23 17 -25 16 -27 0 -573 1 -1213 1 -913 1 -1167 4 -1179 14 -12 9
-16 9 -19 0 -6 -18 -23 -16 -23 2 0 8 -5 15 -12 15 -9 0 -9 3 0 12 10 10 15
10 22 -2 8 -13 10 -12 10 3 0 22 24 22 46 0 14 -15 18 -15 28 -2 6 8 20 16 31
17 11 2 23 9 27 15 8 12 -9 37 -24 37 -6 0 -5 -7 2 -15 7 -9 10 -18 7 -21 -9
-10 -27 6 -27 24 0 20 -73 58 -91 47 -8 -5 -10 -4 -5 3 4 7 15 12 24 12 9 1 2
7 -15 15 -18 8 -33 19 -33 25 0 7 -7 5 -16 -4 -14 -14 -18 -13 -42 13 -15 15
-36 31 -46 35 -14 5 -16 10 -9 17 7 7 23 4 52 -10 22 -12 41 -17 41 -11 0 5
-6 10 -14 10 -8 0 -17 4 -20 8 -3 5 8 6 25 4 16 -2 29 -8 29 -13 0 -5 5 -9 11
-9 7 0 17 -7 24 -16 10 -14 13 -13 29 11 18 27 18 28 -8 54 -14 14 -26 20 -26
14 0 -7 5 -15 10 -18 15 -10 12 -35 -5 -35 -8 0 -16 3 -16 8 -1 4 -3 16 -4 27
-1 12 -7 31 -14 42 -7 14 -8 24 -1 28 5 3 10 11 10 17 0 6 -7 5 -17 -4 -21
-18 -76 -30 -98 -22 -17 7 -21 34 -4 34 6 0 8 9 4 21 -5 15 -4 19 4 15 7 -5
11 2 11 18 0 13 6 27 13 30 9 5 9 7 -1 12 -6 3 -9 10 -6 16 4 6 -1 8 -14 4
-24 -8 -38 19 -16 32 17 10 9 42 -12 42 -8 0 -11 -6 -7 -16 3 -8 -4 -28 -16
-44 -11 -16 -21 -33 -21 -38 0 -5 -7 -15 -15 -22 -12 -10 -15 -9 -15 4 0 27
-25 46 -59 46 -22 0 -31 5 -31 17 0 15 -1 15 -18 0 -16 -15 -18 -15 -18 3 0
22 17 25 46 10 16 -8 19 -7 17 10 -1 12 -15 26 -34 35 -18 9 -33 20 -33 25 0
6 -7 10 -15 10 -8 0 -15 5 -15 10 0 18 -18 10 -23 -10 -3 -13 -10 -18 -21 -14
-9 3 -13 10 -10 15 3 5 9 7 14 4 11 -7 21 21 14 40 -4 8 -13 15 -21 15 -8 0
-12 4 -9 9 4 5 1 11 -6 13 -18 6 12 34 36 33 24 0 33 -22 11 -27 -14 -3 -14
-5 0 -25 9 -13 26 -23 38 -24 21 0 21 -1 2 -9 -11 -5 -15 -9 -8 -9 6 -1 19 -4
28 -7 12 -5 16 -2 14 12 -4 27 11 84 22 84 12 0 12 -17 -1 -25 -5 -3 -10 -13
-10 -21 0 -8 5 -12 10 -9 10 6 14 -7 11 -32 -2 -18 16 -25 23 -8 3 8 13 15 21
15 9 0 24 7 33 16 10 10 17 13 20 6 2 -8 11 -8 29 -1 21 8 24 7 16 -3 -13 -17
-9 -71 5 -76 7 -2 12 3 12 12 0 9 5 16 10 16 6 0 10 -8 10 -18 0 -22 27 -79
41 -87 5 -4 9 3 9 14 0 12 -4 21 -10 21 -5 0 -10 7 -10 15 0 8 -4 15 -10 15
-19 0 -10 32 10 37 15 4 18 11 14 29 -7 26 10 34 20 9 6 -17 26 -20 26 -4 0 5
-4 8 -9 5 -11 -7 -23 19 -13 28 10 11 13 54 3 60 -5 3 -11 -9 -15 -27 -5 -24
-9 -29 -16 -17 -8 12 -11 12 -28 -3 -23 -21 -32 -22 -32 -3 0 8 7 16 16 18 13
3 13 5 -1 23 -14 17 -16 17 -11 2 3 -11 0 -20 -9 -23 -8 -4 -12 -10 -9 -15 3
-5 -7 -4 -21 1 -34 13 -35 13 -35 -5 0 -8 -4 -15 -9 -15 -5 0 -17 -3 -25 -6
-12 -4 -15 -2 -10 9 3 10 -2 18 -16 22 -20 7 -21 8 -4 26 16 18 16 20 -6 44
-13 14 -29 25 -37 25 -14 0 -16 9 -15 48 1 12 -3 22 -8 22 -6 0 -10 7 -10 15
0 8 -10 20 -22 26 -18 10 -24 8 -35 -7 -7 -10 -13 -28 -13 -41 0 -27 -12 -30
-30 -8 -12 14 -15 14 -31 -1 -16 -15 -19 -15 -19 -2 0 20 26 42 40 33 5 -3 10
1 10 10 0 12 -6 15 -20 10 -15 -5 -18 -3 -14 9 3 9 10 16 16 16 5 0 6 6 1 13
-4 6 -6 20 -5 30 5 27 -15 20 -22 -8 -4 -14 -20 -40 -36 -57 -28 -29 -45 -67
-18 -40 15 15 38 16 38 2 0 -5 -7 -10 -15 -10 -11 0 -14 -7 -11 -27 3 -15 0
-33 -6 -40 -8 -10 -6 -13 6 -13 23 0 20 -26 -6 -50 -30 -27 -34 -26 -34 15 0
43 -9 53 -35 36 -12 -7 -23 -10 -26 -7 -9 8 -41 -37 -46 -64 -2 -14 -5 68 -6
181 -1 170 2 212 15 238 8 17 19 29 23 27 4 -3 8 4 8 15 2 22 -1 23 -26 9 -18
-9 -18 2 -17 231 1 240 1 241 25 260 22 18 43 19 342 19 248 0 319 -3 320 -12
0 -10 2 -10 6 0 4 10 37 13 136 12 73 -1 538 -1 1035 -1 816 1 902 3 902 17 0
9 6 14 13 11 6 -2 11 -10 10 -16 -2 -6 4 -11 13 -11 12 0 15 8 12 33 -2 29 0
32 21 29 14 -1 28 3 32 9 11 18 28 1 22 -21 -6 -22 7 -26 24 -9 6 6 16 8 22 4
8 -4 4 -13 -11 -25 -23 -19 -20 -20 232 -19 146 1 263 5 273 11 13 7 28 6 48
-3 16 -6 32 -10 34 -7 3 3 7 24 9 47 3 31 0 44 -10 48 -21 8 -47 60 -34 68 6
3 10 -3 10 -14 0 -12 5 -21 10 -21 6 0 10 7 10 15 0 23 14 18 33 -12 l17 -28
6 23 c5 17 11 21 28 16 21 -6 21 -6 -2 18 -14 15 -20 31 -16 41 3 9 9 15 13
13 4 -3 5 11 3 29 -4 34 -30 68 -68 92 -13 8 -16 14 -7 20 6 5 13 24 15 43 3
31 6 35 33 36 18 0 29 5 27 12 -1 9 3 9 18 0 11 -7 20 -18 20 -24 0 -18 40
-50 48 -37 4 5 22 9 40 8 28 -2 33 1 29 17 -3 10 -4 18 -2 18 11 0 66 -28 66
-33 -2 -19 0 -27 7 -27 4 0 8 11 8 25 1 14 -2 25 -6 25 -5 0 -8 13 -8 30 1 16
-5 36 -12 45 -8 10 -9 15 -1 15 6 0 11 -5 11 -10z m-3083 -16 c2 -5 -3 -19
-11 -29 -14 -19 -15 -18 -14 13 1 30 17 40 25 16z m2993 -13 c0 -5 -7 -11 -14
-14 -10 -4 -13 -1 -9 9 6 15 23 19 23 5z m-2510 -51 c0 -5 -9 -14 -20 -20 -15
-8 -20 -8 -20 3 0 8 3 17 7 20 10 10 33 8 33 -3z m280 -119 c0 -6 -4 -11 -10
-11 -12 0 -31 35 -23 43 7 8 33 -18 33 -32z m1848 -20 c3 -8 -1 -12 -9 -9 -7
2 -15 10 -17 17 -3 8 1 12 9 9 7 -2 15 -10 17 -17z m-2833 -31 c0 -8 -10 -16
-22 -18 -22 -3 -32 16 -16 32 12 11 38 2 38 -14z m-415 -60 l0 -70 30 0 c20 0
30 -5 30 -15 0 -11 -12 -15 -50 -15 l-50 0 0 85 c0 78 2 85 20 85 18 0 20 -7
20 -70z m2937 38 c-3 -8 -6 -5 -6 6 -1 11 2 17 5 13 3 -3 4 -12 1 -19z m-2750
-30 c15 -12 17 -62 3 -88 -22 -41 -105 -29 -116 17 -9 35 3 68 28 81 24 12 65
7 85 -10z m161 -60 c-3 -59 -8 -73 -28 -90 -30 -24 -83 -21 -88 6 -3 14 0 17
13 12 22 -8 55 2 55 16 0 6 -9 8 -19 5 -11 -3 -29 2 -41 10 -17 12 -20 23 -18
56 4 50 26 65 88 59 l42 -4 -4 -70z m196 66 c10 -10 16 -33 16 -65 0 -42 -3
-49 -19 -49 -16 0 -20 8 -23 43 -2 29 -8 42 -18 42 -10 0 -16 -13 -18 -42 -3
-35 -7 -43 -23 -43 -17 0 -19 7 -19 61 0 60 1 61 24 57 14 -3 31 -1 38 3 18
12 24 11 42 -7z m-134 -54 c0 -53 -2 -60 -20 -60 -18 0 -20 7 -20 60 0 53 2
60 20 60 18 0 20 -7 20 -60z m2675 40 c3 -5 -3 -10 -15 -10 -12 0 -18 5 -15
10 3 6 10 10 15 10 5 0 12 -4 15 -10z m174 -40 c16 0 14 -26 -5 -44 -31 -31
-51 -12 -46 44 4 40 4 40 22 20 9 -11 22 -20 29 -20z m-339 20 c0 -5 -4 -10
-10 -10 -5 0 -10 5 -10 10 0 6 5 10 10 10 6 0 10 -4 10 -10z m235 -50 c-3 -10
1 -23 10 -30 11 -9 12 -16 4 -26 -6 -7 -8 -18 -4 -24 3 -5 5 -10 3 -11 -2 0
-38 -3 -80 -5 -66 -5 -78 -3 -78 10 0 9 -4 16 -10 16 -5 0 -10 -7 -10 -15 0
-8 -4 -15 -10 -15 -5 0 -10 9 -10 21 0 16 -4 19 -20 14 -13 -4 -22 -1 -26 9
-3 9 -10 13 -16 10 -5 -3 -4 -11 3 -20 24 -30 -23 -14 -52 17 -46 49 -39 56
36 36 6 -1 15 -5 20 -8 6 -3 18 -9 28 -12 15 -6 16 -4 7 13 -6 11 -16 17 -25
14 -10 -4 -15 0 -15 10 0 18 44 39 69 33 10 -2 15 -11 14 -25 -3 -21 7 -26 45
-25 16 1 15 -13 -3 -41 -15 -22 -14 -23 15 -23 19 0 30 5 30 14 0 11 8 13 30
8 23 -5 30 -3 30 9 0 9 -6 16 -14 16 -8 0 -22 10 -30 22 -18 26 -20 38 -6 38
6 0 10 -6 10 -14 0 -16 27 -29 35 -16 3 4 -1 15 -9 23 -21 21 -6 30 16 10 10
-9 16 -24 13 -33z m-325 25 c0 -8 -2 -15 -4 -15 -2 0 -6 7 -10 15 -3 8 -1 15
4 15 6 0 10 -7 10 -15z m536 -2 c19 -26 18 -74 -1 -67 -8 4 -15 15 -15 26 0
14 -5 18 -15 14 -8 -3 -15 -1 -15 4 0 6 7 10 15 10 9 0 12 6 9 15 -8 20 6 19
22 -2z m-70 -82 c2 -43 -20 -35 -24 8 -3 24 0 32 10 29 7 -3 13 -19 14 -37z
m-346 -37 c0 -8 -5 -12 -10 -9 -6 4 -8 11 -5 16 9 14 15 11 15 -7z m1200 -305
c0 -5 -4 -9 -10 -9 -5 0 -10 7 -10 16 0 8 5 12 10 9 6 -3 10 -10 10 -16z m-30
-34 c0 -8 -4 -15 -8 -15 -5 0 -9 7 -9 15 0 8 4 15 9 15 4 0 8 -7 8 -15z m100
-75 c0 -5 -2 -10 -4 -10 -3 0 -8 5 -11 10 -3 6 -1 10 4 10 6 0 11 -4 11 -10z
m90 -102 c0 -14 -18 -9 -24 8 -11 28 -6 39 9 20 8 -11 15 -23 15 -28z m30
-324 c0 -8 -4 -12 -10 -9 -5 3 -10 13 -10 21 0 8 5 12 10 9 6 -3 10 -13 10
-21z m-4100 12 c0 -2 3 -13 7 -23 3 -10 3 -15 -2 -11 -4 4 -17 3 -28 -3 -12
-7 -17 -7 -13 -1 3 6 1 12 -6 14 -17 6 0 28 23 28 10 0 19 -2 19 -4z m-91 -62
c5 -29 41 -48 41 -21 0 7 13 18 29 24 24 9 29 8 24 -3 -3 -8 -9 -14 -13 -14
-4 0 -11 -11 -14 -25 -6 -24 -26 -35 -26 -14 0 5 -4 8 -9 5 -5 -3 -14 1 -21 9
-6 7 -18 11 -26 8 -16 -6 -29 20 -20 43 8 20 30 13 35 -12z m-47 -101 c-14
-12 -10 -18 11 -14 5 1 6 -3 3 -8 -4 -5 -15 -5 -29 2 l-24 11 21 31 c20 30 21
31 27 11 4 -13 0 -26 -9 -33z m213 47 c3 -5 1 -10 -6 -10 -8 0 -7 -5 2 -17 13
-16 12 -17 -3 -4 -19 14 -24 41 -9 41 6 0 13 -4 16 -10z m-305 -34 c0 -37 -17
-40 -33 -6 -15 29 -15 30 9 30 19 0 24 -5 24 -24z m260 4 c0 -5 -7 -10 -16
-10 -8 0 -12 5 -9 10 3 6 10 10 16 10 5 0 9 -4 9 -10z m-190 -75 c0 -9 -6 -12
-15 -9 -8 4 -12 10 -9 15 8 14 24 10 24 -6z m-163 -37 c-3 -8 -6 -5 -6 6 -1
11 2 17 5 13 3 -3 4 -12 1 -19z m65 -9 c-3 -35 -23 -69 -40 -69 -10 0 -12 5
-7 18 5 9 13 32 19 50 12 36 32 37 28 1z m-42 -184 c17 -10 11 -50 -9 -62 -18
-11 -19 -9 -19 60 1 60 2 66 10 40 4 -18 13 -35 18 -38z m490 -80 c0 -28 -17
-34 -27 -9 -3 9 0 20 8 25 19 12 19 12 19 -16z m-145 5 c3 -5 1 -10 -4 -10 -6
0 -11 5 -11 10 0 6 2 10 4 10 3 0 8 -4 11 -10z m-305 -130 c0 -5 -4 -10 -10
-10 -5 0 -10 5 -10 10 0 6 5 10 10 10 6 0 10 -4 10 -10z m530 -70 c0 -5 -2
-10 -4 -10 -3 0 -8 5 -11 10 -3 6 -1 10 4 10 6 0 11 -4 11 -10z m100 -30 c0
-5 -4 -10 -10 -10 -5 0 -10 5 -10 10 0 6 5 10 10 10 6 0 10 -4 10 -10z m-136
-51 c-8 -13 -43 13 -37 28 4 11 9 11 24 -3 10 -9 16 -20 13 -25z m49 -15 c-7
-19 -23 -7 -23 18 0 17 3 18 14 8 8 -6 12 -18 9 -26z m-573 -19 c8 -9 21 -13
36 -9 13 3 24 2 24 -4 0 -28 -78 -14 -88 16 -5 17 13 15 28 -3z m4375 -25 c3
-5 -1 -10 -9 -10 -9 0 -16 5 -16 10 0 6 4 10 9 10 6 0 13 -4 16 -10z m-95
-166 c0 -8 -4 -14 -10 -14 -5 0 -10 9 -10 21 0 11 5 17 10 14 6 -3 10 -13 10
-21z m-150 -233 c0 -5 -7 -14 -15 -21 -16 -14 -18 -10 -9 14 6 17 24 22 24 7z
m-8430 -3191 c0 -5 -2 -10 -4 -10 -3 0 -8 5 -11 10 -3 6 -1 10 4 10 6 0 11 -4
11 -10z m8005 -270 c3 -5 1 -10 -4 -10 -6 0 -11 5 -11 10 0 6 2 10 4 10 3 0 8
-4 11 -10z m-4865 -660 c0 -5 -6 -10 -14 -10 -8 0 -18 5 -21 10 -3 6 3 10 14
10 12 0 21 -4 21 -10z"/>
<path d="M2850 9190 c0 -71 3 -130 6 -130 4 0 24 10 45 22 31 17 39 28 39 50
0 24 4 28 30 28 27 0 30 3 30 30 0 27 -3 30 -30 30 -20 0 -30 5 -30 15 0 11
12 15 45 15 45 0 45 0 45 35 l0 35 -90 0 -90 0 0 -130z"/>
<path d="M4062 9214 c-34 -23 -27 -34 23 -34 49 0 62 20 26 40 -25 13 -22 13
-49 -6z"/>
<path d="M4518 9219 c-35 -20 -21 -39 27 -39 50 0 57 11 23 34 -26 19 -27 19
-50 5z"/>
<path d="M9170 7870 c0 -5 9 -10 21 -10 11 0 17 5 14 10 -3 6 -13 10 -21 10
-8 0 -14 -4 -14 -10z"/>
<path d="M9185 7840 c-3 -5 -1 -10 4 -10 6 0 11 5 11 10 0 6 -2 10 -4 10 -3 0
-8 -4 -11 -10z"/>
<path d="M9175 7800 c-3 -5 -2 -10 4 -10 5 0 13 5 16 10 3 6 2 10 -4 10 -5 0
-13 -4 -16 -10z"/>
<path d="M9056 7781 c-3 -5 1 -14 9 -21 13 -10 15 -9 15 9 0 21 -14 28 -24 12z"/>
<path d="M9230 7694 c0 -8 5 -12 10 -9 6 3 10 10 10 16 0 5 -4 9 -10 9 -5 0
-10 -7 -10 -16z"/>
<path d="M9153 7550 c-20 -16 -21 -30 -2 -30 9 0 33 40 27 45 -2 2 -13 -5 -25
-15z"/>
<path d="M9219 7476 c11 -12 21 -27 21 -32 0 -12 69 -39 77 -30 11 11 -7 36
-26 36 -11 0 -26 8 -33 18 -7 10 -24 21 -37 25 l-23 6 21 -23z"/>
<path d="M8527 7406 l-27 -35 40 2 c22 1 40 5 40 9 0 4 -5 8 -10 8 -6 0 -8 11
-4 25 9 35 -6 31 -39 -9z"/>
<path d="M9170 7390 c0 -5 7 -10 16 -10 8 0 12 5 9 10 -3 6 -10 10 -16 10 -5
0 -9 -4 -9 -10z"/>
<path d="M9231 7388 c0 -7 4 -22 9 -33 8 -18 9 -17 9 7 1 15 -3 30 -9 33 -5 3
-10 0 -9 -7z"/>
<path d="M9290 7340 c19 -13 30 -13 30 0 0 6 -10 10 -22 10 -19 0 -20 -2 -8
-10z"/>
<path d="M8580 7330 c0 -5 7 -10 15 -10 8 0 15 5 15 10 0 6 -7 10 -15 10 -8 0
-15 -4 -15 -10z"/>
<path d="M8510 7300 c0 -5 5 -10 10 -10 6 0 10 5 10 10 0 6 -4 10 -10 10 -5 0
-10 -4 -10 -10z"/>
<path d="M9145 7289 c-4 -6 2 -20 14 -33 13 -14 18 -29 14 -44 -5 -22 10 -31
22 -12 3 6 20 10 36 10 20 0 29 4 27 13 -3 6 -9 12 -14 13 -27 2 -67 27 -71
44 -6 22 -18 26 -28 9z"/>
<path d="M9275 7290 c-16 -7 -17 -9 -3 -9 9 -1 20 4 23 9 7 11 7 11 -20 0z"/>
<path d="M9322 7229 c2 -7 10 -15 17 -17 8 -3 12 1 9 9 -2 7 -10 15 -17 17 -8
3 -12 -1 -9 -9z"/>
<path d="M8885 7040 c-3 -5 -1 -10 4 -10 6 0 11 5 11 10 0 6 -2 10 -4 10 -3 0
-8 -4 -11 -10z"/>
<path d="M11120 7037 c0 -19 16 -31 24 -18 3 5 -1 14 -9 21 -12 10 -15 10 -15
-3z"/>
<path d="M11070 7016 c0 -8 5 -18 10 -21 6 -3 10 3 10 14 0 12 -4 21 -10 21
-5 0 -10 -6 -10 -14z"/>
<path d="M11106 6985 c-3 -8 -1 -15 4 -15 6 0 10 7 10 15 0 8 -2 15 -4 15 -2
0 -6 -7 -10 -15z"/>
<path d="M11230 6966 c0 -9 5 -16 10 -16 6 0 10 4 10 9 0 6 -4 13 -10 16 -5 3
-10 -1 -10 -9z"/>
<path d="M11670 6610 c0 -5 5 -10 10 -10 6 0 10 5 10 10 0 6 -4 10 -10 10 -5
0 -10 -4 -10 -10z"/>
<path d="M9196 6513 c-6 -14 -5 -15 5 -6 7 7 10 15 7 18 -3 3 -9 -2 -12 -12z"/>
<path d="M9553 6493 c-7 -2 -13 -9 -13 -15 0 -7 5 -7 13 1 8 6 17 8 20 4 4 -3
7 -1 7 5 0 13 -7 14 -27 5z"/>
<path d="M9512 6470 c0 -14 2 -19 5 -12 2 6 2 18 0 25 -3 6 -5 1 -5 -13z"/>
<path d="M9125 6450 c3 -5 8 -10 11 -10 2 0 4 5 4 10 0 6 -5 10 -11 10 -5 0
-7 -4 -4 -10z"/>
<path d="M9160 6453 c0 -15 19 -37 26 -31 3 4 -1 14 -10 23 -9 9 -16 13 -16 8z"/>
<path d="M9450 6449 c0 -5 5 -7 10 -4 6 3 10 8 10 11 0 2 -4 4 -10 4 -5 0 -10
-5 -10 -11z"/>
<path d="M8300 6421 c0 -5 11 -11 24 -13 17 -4 23 -1 19 9 -6 14 -43 18 -43 4z"/>
<path d="M9127 6383 c8 -52 13 -54 13 -5 0 23 -4 42 -9 42 -6 0 -7 -17 -4 -37z"/>
<path d="M9230 6399 c0 -5 5 -7 10 -4 6 3 10 8 10 11 0 2 -4 4 -10 4 -5 0 -10
-5 -10 -11z"/>
<path d="M8280 6392 c0 -6 5 -14 11 -18 6 -3 9 -15 6 -25 -3 -11 -1 -19 4 -19
15 0 10 47 -6 60 -9 8 -15 9 -15 2z"/>
<path d="M9460 6389 c0 -5 5 -7 10 -4 6 3 10 8 10 11 0 2 -4 4 -10 4 -5 0 -10
-5 -10 -11z"/>
<path d="M9275 6380 c-3 -5 -1 -10 4 -10 6 0 11 5 11 10 0 6 -2 10 -4 10 -3 0
-8 -4 -11 -10z"/>
<path d="M9238 6350 c9 -16 18 -25 20 -20 4 12 -17 50 -28 50 -5 0 -1 -13 8
-30z"/>
<path d="M8450 6310 c0 -5 5 -10 11 -10 5 0 7 5 4 10 -3 6 -8 10 -11 10 -2 0
-4 -4 -4 -10z"/>
<path d="M8444 6268 c9 -15 8 -21 -4 -28 -12 -7 -10 -11 10 -18 21 -8 26 -6
33 12 6 14 3 24 -7 32 -9 6 -14 13 -11 15 2 3 -4 5 -14 5 -15 0 -17 -3 -7 -18z"/>
<path d="M8296 6264 c-4 -11 -1 -14 11 -12 9 2 18 9 21 16 6 18 -25 15 -32 -4z"/>
<path d="M9405 6270 c-3 -5 1 -10 10 -10 9 0 13 5 10 10 -3 6 -8 10 -10 10 -2
0 -7 -4 -10 -10z"/>
<path d="M8390 6259 c0 -4 7 -9 15 -13 9 -3 15 0 15 8 0 7 -7 13 -15 13 -8 0
-15 -4 -15 -8z"/>
<path d="M9066 6254 c-4 -10 -1 -14 6 -12 15 5 23 28 10 28 -5 0 -13 -7 -16
-16z"/>
<path d="M8380 6225 c0 -8 2 -15 4 -15 2 0 6 7 10 15 3 8 1 15 -4 15 -6 0 -10
-7 -10 -15z"/>
<path d="M7540 6220 c0 -5 5 -10 11 -10 5 0 7 5 4 10 -3 6 -8 10 -11 10 -2 0
-4 -4 -4 -10z"/>
<path d="M7685 6201 c-3 -5 -1 -12 5 -16 5 -3 10 1 10 9 0 18 -6 21 -15 7z"/>
<path d="M8331 6194 c0 -11 3 -14 6 -6 3 7 2 16 -1 19 -3 4 -6 -2 -5 -13z"/>
<path d="M7666 6155 c-3 -8 -1 -15 4 -15 6 0 10 7 10 15 0 8 -2 15 -4 15 -2 0
-6 -7 -10 -15z"/>
<path d="M8684 6124 c0 -26 3 -31 13 -22 7 6 13 17 13 24 0 8 5 14 12 14 18 0
0 14 -20 15 -14 1 -18 -6 -18 -31z"/>
<path d="M8405 6140 c3 -5 8 -10 11 -10 2 0 4 5 4 10 0 6 -5 10 -11 10 -5 0
-7 -4 -4 -10z"/>
<path d="M8926 6105 c4 -8 10 -12 15 -9 14 8 10 24 -6 24 -9 0 -12 -6 -9 -15z"/>
<path d="M8380 6085 c0 -8 5 -15 10 -15 6 0 10 7 10 15 0 8 -4 15 -10 15 -5 0
-10 -7 -10 -15z"/>
<path d="M8555 6060 c3 -5 11 -10 16 -10 6 0 7 5 4 10 -3 6 -11 10 -16 10 -6
0 -7 -4 -4 -10z"/>
<path d="M9006 6035 c-9 -26 -7 -32 5 -12 6 10 9 21 6 23 -2 3 -7 -2 -11 -11z"/>
<path d="M9100 6034 c-16 -18 -21 -54 -8 -54 4 0 8 8 8 18 0 10 5 23 12 30 6
6 9 14 6 17 -3 3 -11 -2 -18 -11z"/>
<path d="M8804 6018 c-6 -7 -14 -21 -17 -30 -6 -18 -48 -17 -110 2 -24 8 -26
7 -17 -9 13 -25 120 -35 136 -13 7 9 19 13 32 10 15 -4 23 0 28 14 6 22 -6 41
-13 20 -4 -10 -8 -9 -17 3 -10 14 -14 14 -22 3z"/>
<path d="M8600 6009 c0 -5 5 -7 10 -4 6 3 10 8 10 11 0 2 -4 4 -10 4 -5 0 -10
-5 -10 -11z"/>
<path d="M8755 6010 c4 -6 11 -8 16 -5 14 9 11 15 -7 15 -8 0 -12 -5 -9 -10z"/>
<path d="M11796 6012 c-3 -5 4 -18 16 -28 21 -19 21 -19 8 6 -17 33 -17 33
-24 22z"/>
<path d="M7790 5960 c0 -30 13 -37 39 -21 11 7 9 13 -8 30 -28 28 -31 27 -31
-9z"/>
<path d="M7885 5980 c-4 -6 -4 -14 0 -18 4 -4 10 -1 12 6 4 9 8 10 18 2 9 -8
15 -8 20 0 3 5 2 10 -4 10 -5 0 -16 3 -24 6 -8 3 -18 0 -22 -6z"/>
<path d="M8136 5983 c5 -5 12 -12 16 -18 4 -6 8 -2 8 8 0 9 -7 17 -17 17 -9 0
-12 -3 -7 -7z"/>
<path d="M8956 5945 c-11 -8 -16 -15 -10 -15 5 0 18 7 28 15 11 8 16 15 10 15
-5 0 -18 -7 -28 -15z"/>
<path d="M11877 5933 c-11 -10 -8 -51 3 -58 6 -4 10 8 10 29 0 37 -2 41 -13
29z"/>
<path d="M7650 5914 c0 -14 3 -14 15 -4 8 7 15 14 15 16 0 2 -7 4 -15 4 -8 0
-15 -7 -15 -16z"/>
<path d="M7886 5914 c-5 -14 -4 -15 9 -4 17 14 19 20 6 20 -5 0 -12 -7 -15
-16z"/>
<path d="M8830 5909 c0 -11 5 -17 10 -14 6 3 10 13 10 21 0 8 -4 14 -10 14 -5
0 -10 -9 -10 -21z"/>
<path d="M8445 5910 c-3 -5 -1 -10 4 -10 6 0 11 5 11 10 0 6 -2 10 -4 10 -3 0
-8 -4 -11 -10z"/>
<path d="M8905 5909 c-11 -17 0 -20 21 -4 17 13 17 14 2 15 -9 0 -20 -5 -23
-11z"/>
<path d="M9260 5910 c0 -5 4 -10 9 -10 6 0 13 5 16 10 3 6 -1 10 -9 10 -9 0
-16 -4 -16 -10z"/>
<path d="M7587 5897 c-17 -12 -27 -90 -14 -104 4 -3 18 -1 32 5 20 9 25 19 25
51 0 46 -18 67 -43 48z"/>
<path d="M7786 5901 c-4 -5 -2 -12 3 -15 5 -4 12 -2 15 3 4 5 2 12 -3 15 -5 4
-12 2 -15 -3z"/>
<path d="M7862 5844 c4 -21 22 -23 26 -1 2 10 -3 17 -13 17 -10 0 -15 -6 -13
-16z"/>
<path d="M8503 5813 c-15 -5 -17 -23 -4 -23 5 0 11 7 15 15 3 8 4 15 3 14 -1
0 -8 -3 -14 -6z"/>
<path d="M8830 5805 c0 -8 4 -15 10 -15 5 0 7 7 4 15 -4 8 -8 15 -10 15 -2 0
-4 -7 -4 -15z"/>
<path d="M7918 5793 c-22 -6 -23 -27 -2 -47 22 -22 27 -20 20 9 -4 14 -2 25 4
25 5 0 10 5 10 10 0 10 -3 11 -32 3z"/>
<path d="M9140 5780 c0 -14 7 -20 21 -20 18 0 18 -2 -8 -25 l-28 -26 34 5 c50
7 57 20 30 55 -28 35 -49 40 -49 11z"/>
<path d="M8496 5771 c-4 -5 -2 -12 3 -15 5 -4 12 -2 15 3 4 5 2 12 -3 15 -5 4
-12 2 -15 -3z"/>
<path d="M9105 5770 c-3 -5 1 -10 9 -10 9 0 16 5 16 10 0 6 -4 10 -9 10 -6 0
-13 -4 -16 -10z"/>
<path d="M7630 5755 c0 -10 -5 -13 -12 -9 -9 5 -9 2 1 -9 7 -9 17 -17 22 -17
12 0 11 37 -1 45 -5 3 -10 -1 -10 -10z"/>
<path d="M8105 5710 c-7 -12 18 -24 37 -18 8 3 5 9 -9 16 -14 8 -24 9 -28 2z"/>
<path d="M8196 5666 c5 -13 4 -17 -4 -12 -8 5 -12 -1 -12 -18 0 -19 5 -26 20
-26 11 0 20 5 20 11 0 6 -7 9 -15 5 -12 -4 -13 -2 -3 14 10 15 10 22 0 32 -11
11 -12 9 -6 -6z"/>
<path d="M7985 5659 c-11 -16 -1 -19 13 -3 7 8 8 14 3 14 -5 0 -13 -5 -16 -11z"/>
<path d="M11885 5640 c-3 -5 -1 -10 4 -10 6 0 11 5 11 10 0 6 -2 10 -4 10 -3
0 -8 -4 -11 -10z"/>
<path d="M9115 5610 c-3 -5 -1 -10 4 -10 6 0 11 5 11 10 0 6 -2 10 -4 10 -3 0
-8 -4 -11 -10z"/>
<path d="M8200 5590 c0 -6 7 -13 15 -16 8 -4 12 -11 8 -17 -4 -6 -1 -7 6 -3 9
6 8 13 -5 27 -20 22 -24 23 -24 9z"/>
<path d="M11930 5591 c0 -6 4 -13 10 -16 6 -3 7 1 4 9 -7 18 -14 21 -14 7z"/>
<path d="M8000 5549 c0 -14 5 -19 17 -17 26 5 29 38 4 38 -15 0 -21 -6 -21
-21z"/>
<path d="M11670 5553 c0 -9 3 -13 7 -10 3 4 12 2 20 -5 11 -8 12 -7 7 5 -8 22
-34 30 -34 10z"/>
<path d="M8170 5556 c0 -2 7 -9 15 -16 12 -10 15 -10 15 4 0 9 -7 16 -15 16
-8 0 -15 -2 -15 -4z"/>
<path d="M11890 5540 c0 -19 3 -21 12 -12 9 9 9 15 0 24 -9 9 -12 7 -12 -12z"/>
<path d="M8271 5524 c0 -11 3 -14 6 -6 3 7 2 16 -1 19 -3 4 -6 -2 -5 -13z"/>
<path d="M8140 5509 c0 -11 4 -18 10 -14 5 3 7 12 3 20 -7 21 -13 19 -13 -6z"/>
<path d="M8170 5510 c0 -5 5 -10 11 -10 5 0 7 5 4 10 -3 6 -8 10 -11 10 -2 0
-4 -4 -4 -10z"/>
<path d="M8235 5511 c-3 -5 -1 -12 5 -16 5 -3 10 1 10 9 0 18 -6 21 -15 7z"/>
<path d="M7983 5483 c-10 -32 -6 -63 8 -63 6 0 7 15 3 36 -5 27 -4 35 5 30 6
-4 11 -1 11 8 0 26 -17 18 -27 -11z"/>
<path d="M8203 5475 c0 -18 5 -25 18 -25 11 0 19 5 19 10 0 6 -4 10 -10 10 -5
0 -10 7 -10 15 0 8 -4 15 -9 15 -5 0 -8 -11 -8 -25z"/>
<path d="M8157 5469 c-4 -13 -2 -28 3 -33 14 -14 24 19 12 40 -8 14 -10 13
-15 -7z"/>
<path d="M7940 5465 c7 -9 15 -13 17 -11 7 7 -7 26 -19 26 -6 0 -6 -6 2 -15z"/>
<path d="M8631 5464 c0 -11 3 -14 6 -6 3 7 2 16 -1 19 -3 4 -6 -2 -5 -13z"/>
<path d="M11670 5460 c0 -5 7 -10 16 -10 8 0 12 5 9 10 -3 6 -10 10 -16 10 -5
0 -9 -4 -9 -10z"/>
<path d="M11930 5454 c0 -8 5 -12 10 -9 6 3 10 10 10 16 0 5 -4 9 -10 9 -5 0
-10 -7 -10 -16z"/>
<path d="M8520 5425 c1 -26 2 -28 11 -12 8 14 8 22 0 30 -8 8 -11 3 -11 -18z"/>
<path d="M8210 5421 c0 -6 5 -13 10 -16 6 -3 10 1 10 9 0 9 -4 16 -10 16 -5 0
-10 -4 -10 -9z"/>
<path d="M8258 5412 c10 -12 21 -15 27 -10 11 10 -10 28 -32 28 -9 0 -7 -6 5
-18z"/>
<path d="M11672 5380 c0 -19 2 -27 5 -17 2 9 2 25 0 35 -3 9 -5 1 -5 -18z"/>
<path d="M8181 5384 c0 -11 3 -14 6 -6 3 7 2 16 -1 19 -3 4 -6 -2 -5 -13z"/>
<path d="M8453 5393 c4 -3 2 -12 -5 -20 -9 -12 -4 -33 6 -22 12 14 16 49 5 49
-7 0 -9 -3 -6 -7z"/>
<path d="M8940 5379 c0 -12 -8 -23 -20 -26 -11 -3 -20 -12 -20 -20 0 -8 -4
-11 -10 -8 -5 3 -10 2 -10 -3 0 -6 17 -8 38 -5 34 5 42 1 67 -28 l28 -34 -7
38 c-5 28 -3 39 8 43 12 5 9 12 -15 35 -35 34 -59 37 -59 8z m50 -20 c0 -5 -4
-9 -10 -9 -5 0 -10 7 -10 16 0 8 5 12 10 9 6 -3 10 -10 10 -16z"/>
<path d="M8667 5383 c-4 -3 -7 -11 -7 -17 0 -6 5 -5 12 2 6 6 9 14 7 17 -3 3
-9 2 -12 -2z"/>
<path d="M8106 5363 c-3 -4 -6 -17 -6 -30 0 -12 -4 -23 -10 -23 -5 0 -10 -4
-10 -10 0 -6 10 -5 25 2 18 8 22 15 15 22 -5 5 -10 17 -10 25 0 11 4 11 19 -3
10 -10 22 -13 25 -8 6 10 -39 34 -48 25z"/>
<path d="M8215 5360 c3 -5 8 -10 11 -10 2 0 4 5 4 10 0 6 -5 10 -11 10 -5 0
-7 -4 -4 -10z"/>
<path d="M8350 5340 c19 -13 30 -13 30 0 0 6 -10 10 -22 10 -19 0 -20 -2 -8
-10z"/>
<path d="M8589 5331 c12 -11 22 -22 21 -25 -1 -4 1 -12 3 -19 3 -6 6 -3 6 9 1
20 -27 54 -44 54 -4 0 2 -9 14 -19z"/>
<path d="M8440 5331 c0 -5 7 -11 15 -15 8 -3 15 -1 15 3 0 5 -7 11 -15 15 -8
3 -15 1 -15 -3z"/>
<path d="M11670 5319 c0 -5 5 -7 10 -4 6 3 10 8 10 11 0 2 -4 4 -10 4 -5 0
-10 -5 -10 -11z"/>
<path d="M11925 5320 c-3 -5 -2 -10 4 -10 5 0 13 5 16 10 3 6 2 10 -4 10 -5 0
-13 -4 -16 -10z"/>
<path d="M11715 5310 c3 -5 8 -10 11 -10 2 0 4 5 4 10 0 6 -5 10 -11 10 -5 0
-7 -4 -4 -10z"/>
<path d="M8469 5294 c-12 -14 -11 -16 5 -13 11 2 21 10 24 17 5 17 -13 15 -29
-4z"/>
<path d="M11885 5299 c-10 -15 3 -25 16 -12 7 7 7 13 1 17 -6 3 -14 1 -17 -5z"/>
<path d="M11696 5293 c-11 -11 -6 -23 9 -23 8 0 15 4 15 9 0 13 -16 22 -24 14z"/>
<path d="M8195 5270 c-3 -5 -2 -10 4 -10 5 0 13 5 16 10 3 6 2 10 -4 10 -5 0
-13 -4 -16 -10z"/>
<path d="M11678 5234 c-5 -4 -8 -16 -8 -28 0 -14 3 -17 11 -9 6 6 9 19 7 28
-1 9 -6 13 -10 9z"/>
<path d="M8330 5211 c0 -19 28 -37 39 -25 3 4 0 9 -6 11 -7 3 -13 11 -13 19 0
8 -4 14 -10 14 -5 0 -10 -9 -10 -19z"/>
<path d="M8280 5200 c0 -5 5 -10 10 -10 6 0 10 5 10 10 0 6 -4 10 -10 10 -5 0
-10 -4 -10 -10z"/>
<path d="M8263 5165 c-18 -19 -16 -42 3 -49 10 -4 14 -1 11 6 -2 7 0 23 4 36
10 25 0 28 -18 7z"/>
<path d="M8535 5170 c-3 -5 -1 -10 4 -10 6 0 11 5 11 10 0 6 -2 10 -4 10 -3 0
-8 -4 -11 -10z"/>
<path d="M9112 5169 c2 -6 8 -10 13 -10 5 0 11 4 13 10 2 6 -4 11 -13 11 -9 0
-15 -5 -13 -11z"/>
<path d="M8302 5150 c-8 -14 -8 -22 3 -36 7 -11 17 -15 21 -11 5 4 3 11 -3 15
-8 5 -8 12 3 26 13 18 14 18 24 -9 7 -19 15 -25 26 -21 9 3 18 6 20 6 2 0 4 7
4 16 0 11 -6 15 -20 11 -10 -3 -20 -1 -22 4 -6 18 -44 17 -56 -1z"/>
<path d="M11670 5135 c0 -20 4 -34 9 -31 16 10 18 41 4 54 -11 11 -13 7 -13
-23z"/>
<path d="M11917 5156 c-4 -10 -1 -13 8 -9 8 3 12 9 9 14 -7 12 -11 11 -17 -5z"/>
<path d="M9285 5140 c3 -5 11 -10 16 -10 6 0 7 5 4 10 -3 6 -11 10 -16 10 -6
0 -7 -4 -4 -10z"/>
<path d="M9038 5094 c-2 -19 0 -37 4 -40 4 -3 8 5 9 18 0 13 2 31 4 41 2 9 0
17 -5 17 -4 0 -10 -16 -12 -36z"/>
<path d="M8420 5099 c0 -5 5 -7 10 -4 6 3 10 8 10 11 0 2 -4 4 -10 4 -5 0 -10
-5 -10 -11z"/>
<path d="M9106 5091 c-13 -14 -14 -24 -7 -44 11 -27 0 -44 -19 -32 -5 3 -10 1
-10 -4 0 -6 11 -11 24 -11 14 0 27 -4 30 -9 10 -15 57 1 66 23 9 21 9 21 9 -1
1 -13 6 -23 11 -23 18 0 10 26 -15 48 -15 13 -22 28 -19 37 4 11 2 13 -9 10
-8 -4 -17 1 -20 9 -8 21 -20 20 -41 -3z m29 -51 c3 -5 1 -10 -4 -10 -6 0 -11
5 -11 10 0 6 2 10 4 10 3 0 8 -4 11 -10z"/>
<path d="M8335 5090 c-3 -5 -2 -10 4 -10 5 0 13 5 16 10 3 6 2 10 -4 10 -5 0
-13 -4 -16 -10z"/>
<path d="M9227 5069 c7 -7 15 -10 18 -7 3 3 -2 9 -12 12 -14 6 -15 5 -6 -5z"/>
<path d="M11670 5026 c0 -30 -5 -58 -10 -61 -6 -4 -8 -11 -4 -16 3 -5 0 -16
-6 -24 -7 -8 -10 -20 -8 -27 9 -27 40 44 43 98 3 40 9 60 22 70 17 12 16 13
-9 14 -27 0 -28 -2 -28 -54z"/>
<path d="M8381 4996 c-15 -18 0 -28 16 -10 7 7 9 15 4 18 -5 3 -14 -1 -20 -8z"/>
<path d="M8430 4990 c0 -4 7 -11 16 -14 22 -9 26 -8 22 6 -5 13 -38 20 -38 8z"/>
<path d="M9345 4970 c3 -5 8 -10 11 -10 2 0 4 5 4 10 0 6 -5 10 -11 10 -5 0
-7 -4 -4 -10z"/>
<path d="M11448 4932 c6 -2 12 -13 12 -24 0 -20 1 -20 26 -3 15 9 23 12 20 6
-4 -6 -2 -11 3 -11 6 0 11 9 11 20 0 17 -6 20 -42 18 -24 -1 -37 -3 -30 -6z"/>
<path d="M11530 4930 c0 -5 7 -10 16 -10 9 0 22 -7 29 -16 10 -14 13 -13 28
10 l17 26 -45 0 c-25 0 -45 -4 -45 -10z"/>
<path d="M10685 4920 c3 -5 8 -10 11 -10 2 0 4 5 4 10 0 6 -5 10 -11 10 -5 0
-7 -4 -4 -10z"/>
<path d="M11801 4914 c0 -11 3 -14 6 -6 3 7 2 16 -1 19 -3 4 -6 -2 -5 -13z"/>
<path d="M11746 4721 c-4 -5 -1 -13 5 -17 6 -4 9 -19 5 -36 -3 -18 -2 -27 4
-23 13 8 13 72 1 80 -5 3 -12 1 -15 -4z"/>
<path d="M11590 4480 c0 -5 5 -10 10 -10 6 0 10 5 10 10 0 6 -4 10 -10 10 -5
0 -10 -4 -10 -10z"/>
<path d="M11535 4440 c3 -5 8 -10 11 -10 2 0 4 5 4 10 0 6 -5 10 -11 10 -5 0
-7 -4 -4 -10z"/>
<path d="M11370 4350 c0 -5 5 -10 11 -10 5 0 7 5 4 10 -3 6 -8 10 -11 10 -2 0
-4 -4 -4 -10z"/>
<path d="M11002 4335 c-11 -13 -9 -15 14 -15 22 0 25 2 14 15 -15 18 -12 18
-28 0z"/>
<path d="M7724 6786 c-9 -24 4 -48 23 -44 12 2 18 12 18 28 0 29 -32 41 -41
16z"/>
<path d="M7877 6793 c-4 -3 -7 -17 -7 -30 0 -16 6 -23 20 -23 16 0 20 7 20 30
0 28 -17 40 -33 23z"/>
<path d="M10833 6747 c4 -14 26 -16 30 -3 1 5 -6 10 -16 12 -10 1 -16 -3 -14
-9z"/>
</g>
</svg>
