<?xml version="1.0" standalone="no"?>
<!DOCTYPE svg PUBLIC "-//W3C//DTD SVG 20010904//EN"
 "http://www.w3.org/TR/2001/REC-SVG-20010904/DTD/svg10.dtd">
<svg version="1.0" xmlns="http://www.w3.org/2000/svg"
 width="1913.000000pt" height="1073.000000pt" viewBox="0 0 1913.000000 1073.000000"
 preserveAspectRatio="xMidYMid meet">

<g transform="translate(0.000000,1073.000000) scale(0.100000,-0.100000)"
fill="#000000" stroke="none">
<path d="M0 5365 l0 -5365 9565 0 9565 0 0 5365 0 5365 -9565 0 -9565 0 0
-5365z m5805 4115 c-27 -12 -43 -12 -25 0 8 5 22 9 30 9 10 0 8 -3 -5 -9z m59
-22 c9 -12 15 -36 15 -53 -1 -27 -2 -26 -9 9 -4 22 -16 45 -26 53 -10 7 -13
13 -6 13 6 0 18 -10 26 -22z m-104 8 c0 -2 -8 -10 -17 -17 -16 -13 -17 -12 -4
4 13 16 21 21 21 13z m584 -36 c-10 -4 -25 -5 -32 -2 -22 8 6 21 31 14 20 -5
20 -6 1 -12z m-97 4 c-3 -3 -12 -4 -19 -1 -8 3 -5 6 6 6 11 1 17 -2 13 -5z
m433 -9 c6 -8 10 -20 7 -27 -4 -8 -6 -7 -6 4 -1 9 -9 22 -18 27 -10 6 -13 11
-7 11 6 0 17 -7 24 -15z m137 9 c-3 -3 -12 -4 -19 -1 -8 3 -5 6 6 6 11 1 17
-2 13 -5z m470 0 c-3 -3 -12 -4 -19 -1 -8 3 -5 6 6 6 11 1 17 -2 13 -5z
m-1270 -26 c-3 -8 -6 -5 -6 6 -1 11 2 17 5 13 3 -3 4 -12 1 -19z m66 -2 c-10
-13 -20 -22 -22 -20 -4 4 29 44 36 44 2 0 -4 -11 -14 -24z m696 21 c-2 -1 -13
-9 -24 -17 -19 -14 -19 -14 -6 3 7 9 18 17 24 17 6 0 8 -1 6 -3z m125 -19
c-10 -13 -20 -25 -21 -27 -2 -2 -3 6 -3 18 0 12 4 20 9 16 5 -3 12 -1 16 5 3
5 9 10 12 10 3 0 -2 -10 -13 -22z m750 0 c-10 -13 -20 -25 -21 -27 -2 -2 -3 6
-3 18 0 12 4 20 9 16 5 -3 12 -1 16 5 3 5 9 10 12 10 3 0 -2 -10 -13 -22z m79
-2 c-10 -13 -20 -22 -22 -20 -4 4 29 44 36 44 2 0 -4 -11 -14 -24z m-1483 -74
c0 -6 -4 -13 -9 -16 -5 -4 -7 2 -4 12 2 10 -6 27 -21 41 -14 14 -26 28 -26 33
0 5 14 -7 30 -25 17 -19 30 -39 30 -45z m203 63 c-3 -9 -8 -14 -10 -11 -3 3
-2 9 2 15 9 16 15 13 8 -4z m144 -7 c-3 -8 -6 -5 -6 6 -1 11 2 17 5 13 3 -3 4
-12 1 -19z m436 7 c-3 -9 -8 -14 -10 -11 -3 3 -2 9 2 15 9 16 15 13 8 -4z
m257 -63 c0 -6 -4 -13 -9 -16 -5 -4 -7 2 -4 12 2 10 -6 27 -21 41 -14 14 -26
28 -26 33 0 5 14 -7 30 -25 17 -19 30 -39 30 -45z m63 63 c-3 -9 -8 -14 -10
-11 -3 3 -2 9 2 15 9 16 15 13 8 -4z m144 -7 c-3 -8 -6 -5 -6 6 -1 11 2 17 5
13 3 -3 4 -12 1 -19z m7131 -41 c7 -135 -55 -275 -173 -394 l-82 -83 9 -47
c13 -71 1 -147 -29 -184 -29 -34 -97 -71 -161 -89 -67 -17 -72 -8 -72 124 l0
112 -58 57 -58 57 -111 0 c-140 0 -143 3 -114 98 41 134 122 188 254 165 l57
-10 82 81 c121 118 253 177 388 173 l65 -2 3 -58z m-8911 21 c-3 -7 -5 -2 -5
12 0 14 2 19 5 13 2 -7 2 -19 0 -25z m200 -10 c-3 -8 -6 -5 -6 6 -1 11 2 17 5
13 3 -3 4 -12 1 -19z m85 -10 c-8 -8 -9 -4 -5 13 4 13 8 18 11 10 2 -7 -1 -18
-6 -23z m-152 -13 c-13 -14 -27 -25 -31 -25 -4 0 4 13 19 28 15 15 29 26 31
25 3 -2 -6 -14 -19 -28z m270 31 c0 -2 -15 -6 -34 -8 -19 -2 -32 0 -30 4 5 8
64 12 64 4z m557 -18 c-3 -8 -6 -5 -6 6 -1 11 2 17 5 13 3 -3 4 -12 1 -19z
m200 0 c-3 -8 -6 -5 -6 6 -1 11 2 17 5 13 3 -3 4 -12 1 -19z m610 0 c-3 -8 -6
-5 -6 6 -1 11 2 17 5 13 3 -3 4 -12 1 -19z m140 0 c-3 -8 -6 -5 -6 6 -1 11 2
17 5 13 3 -3 4 -12 1 -19z m143 18 c0 -2 -15 -6 -34 -8 -19 -2 -32 0 -30 4 5
8 64 12 64 4z m-1249 -39 l-24 -22 19 27 c10 14 21 24 23 22 3 -3 -6 -15 -18
-27z m296 -4 c-3 -10 -5 -4 -5 12 0 17 2 24 5 18 2 -7 2 -21 0 -30z m284 4
l-24 -22 19 27 c10 14 21 24 23 22 3 -3 -6 -15 -18 -27z m320 0 l-24 -22 19
27 c10 14 21 24 23 22 3 -3 -6 -15 -18 -27z m144 3 c-10 -11 -22 -20 -26 -20
-5 0 2 10 14 23 27 28 38 25 12 -3z m-1811 -19 c-5 -6 -34 20 -34 30 0 5 8 1
18 -8 10 -10 17 -20 16 -22z m570 -4 c7 -6 6 -7 -4 -4 -8 2 -16 14 -17 28 -1
19 -1 20 4 4 3 -11 10 -24 17 -28z m-113 -5 c-7 -2 -18 1 -23 6 -8 8 -4 9 13
5 13 -4 18 -8 10 -11z m184 8 c3 -5 1 -10 -4 -10 -6 0 -11 5 -11 10 0 6 2 10
4 10 3 0 8 -4 11 -10z m580 0 c3 -5 1 -10 -4 -10 -6 0 -11 5 -11 10 0 6 2 10
4 10 3 0 8 -4 11 -10z m276 -8 c-7 -2 -18 1 -23 6 -8 8 -4 9 13 5 13 -4 18 -8
10 -11z m-1454 2 c-3 -3 -12 -4 -19 -1 -8 3 -5 6 6 6 11 1 17 -2 13 -5z m250
-210 c56 -42 68 -69 68 -154 0 -64 -4 -84 -21 -106 -42 -57 -69 -69 -152 -69
-65 0 -82 4 -111 24 -102 73 -91 253 19 309 57 30 154 27 197 -4z m904 -9
c-21 -19 -48 -35 -61 -35 -12 0 -20 3 -18 8 31 62 30 62 75 62 l43 0 -39 -35z
m5909 -140 l0 -175 -50 0 -50 0 0 114 0 115 -42 -24 c-24 -14 -46 -25 -50 -25
-5 0 -8 18 -8 40 0 36 3 41 33 54 18 7 44 27 58 44 20 26 31 31 67 31 l42 1 0
-175z m320 0 l0 -175 -50 0 -50 0 0 114 0 115 -42 -24 c-24 -14 -46 -25 -50
-25 -5 0 -8 18 -8 40 0 36 3 41 33 54 18 7 44 27 58 44 20 26 31 31 67 31 l42
1 0 -175z m-6679 70 c13 -52 25 -93 27 -90 2 2 14 43 26 92 l22 88 72 3 72 3
0 -171 0 -170 -45 0 -45 0 -1 118 -1 117 -30 -118 -31 -118 -40 3 -40 3 -33
120 -32 120 -1 -122 -1 -123 -45 0 -45 0 0 170 0 170 74 0 74 0 23 -95z m859
-75 l0 -170 -45 0 c-25 0 -45 5 -45 11 0 5 -10 3 -22 -5 -36 -25 -83 -20 -120
13 -28 24 -32 36 -36 90 -3 36 1 73 8 91 21 50 93 75 141 50 18 -10 19 -7 19
40 l0 50 50 0 50 0 0 -170z m480 0 l0 -170 -50 0 -50 0 0 170 0 170 50 0 50 0
0 -170z m650 40 l0 -130 85 0 85 0 0 -40 0 -40 -140 0 -140 0 0 170 0 170 55
0 55 0 0 -130z m1800 -40 l0 -170 -45 0 c-25 0 -45 5 -45 11 0 5 -10 3 -22 -5
-51 -36 -125 -10 -149 51 -12 33 -11 120 2 146 26 51 91 73 140 47 18 -10 19
-7 19 40 l0 50 50 0 50 0 0 -170z m821 5 c32 -88 59 -163 59 -167 0 -5 -25 -8
-55 -8 -54 0 -56 1 -61 30 -6 29 -8 30 -64 30 -55 0 -59 -1 -69 -30 -9 -29
-13 -30 -66 -30 -31 0 -55 4 -53 8 2 5 30 82 63 171 l60 162 63 -3 64 -3 59
-160z m839 -5 l0 -170 -50 0 -50 0 0 170 0 170 50 0 50 0 0 -170z m160 0 l0
-170 -50 0 -50 0 0 170 0 170 50 0 50 0 0 -170z m-5137 81 c129 -49 97 -245
-42 -259 -95 -9 -161 43 -161 126 0 59 16 90 59 119 36 25 100 31 144 14z
m1120 0 c129 -49 97 -245 -42 -259 -95 -9 -161 43 -161 126 0 59 16 90 59 119
36 25 100 31 144 14z m1161 -12 c25 -20 26 -24 26 -130 l0 -109 -44 0 -44 0
-3 85 c-4 91 -17 118 -47 99 -13 -9 -18 -29 -20 -98 l-3 -86 -49 0 -50 0 0
125 0 125 44 0 c25 0 46 -5 48 -12 3 -8 11 -7 28 5 33 23 82 21 114 -4z m306
6 c34 -18 37 -28 43 -152 l4 -93 -42 0 c-24 0 -45 5 -47 11 -2 6 -14 5 -33 -5
-72 -38 -155 -5 -155 60 0 47 25 68 96 83 68 13 89 24 80 40 -10 16 -51 14
-66 -4 -14 -16 -67 -20 -89 -6 -19 12 -5 48 27 66 36 19 145 19 182 0z m285 4
c4 -5 1 -23 -5 -40 -10 -23 -17 -28 -35 -23 -33 8 -45 -20 -45 -110 l0 -76
-50 0 -50 0 0 125 0 125 45 0 c29 0 45 -4 45 -12 0 -8 6 -6 17 5 19 19 68 23
78 6z m725 -4 c34 -18 37 -28 43 -152 l4 -93 -42 0 c-24 0 -45 5 -47 11 -2 6
-14 5 -33 -5 -72 -38 -155 -5 -155 60 0 47 25 68 96 83 68 13 89 24 80 40 -10
16 -51 14 -66 -4 -14 -16 -67 -20 -89 -6 -19 12 -5 48 27 66 36 19 145 19 182
0z m861 2 c49 -38 69 -139 39 -197 -27 -54 -91 -76 -141 -50 -18 10 -19 7 -19
-40 l0 -50 -50 0 -50 0 0 170 0 170 45 0 c25 0 45 -5 45 -11 0 -5 10 -3 22 5
27 19 87 20 109 3z m292 4 c129 -49 97 -245 -42 -259 -95 -9 -161 43 -161 126
0 59 16 90 59 119 36 25 100 31 144 14z m640 0 c129 -49 97 -245 -42 -259 -61
-6 -102 10 -137 51 -23 27 -26 38 -22 89 4 60 29 100 73 118 28 12 99 12 128
1z m-4843 -91 c0 -72 3 -92 15 -96 33 -13 45 15 45 102 l0 84 50 0 50 0 0
-125 0 -125 -45 0 c-25 0 -45 5 -45 10 0 6 -13 4 -30 -5 -43 -22 -87 -19 -115
10 -23 23 -25 31 -25 130 l0 105 50 0 50 0 0 -90z m1280 0 c0 -72 3 -92 15
-96 33 -13 45 15 45 102 l0 84 50 0 50 0 0 -125 0 -125 -45 0 c-25 0 -45 5
-45 10 0 6 -13 4 -30 -5 -43 -22 -87 -19 -115 10 -23 23 -25 31 -25 130 l0
105 50 0 50 0 0 -90z m5141 -155 c39 -21 69 -71 69 -115 0 -79 -82 -143 -216
-171 -74 -15 -94 -9 -94 28 0 46 35 160 63 201 43 65 116 88 178 57z m-8493
-281 c26 -18 30 -65 6 -88 -8 -9 -29 -16 -45 -16 -27 0 -29 -3 -29 -35 0 -19
-4 -35 -10 -35 -6 0 -10 38 -10 95 l0 95 33 0 c18 0 43 -7 55 -16z m1130 -86
l-2 -93 -3 83 c-4 82 -4 82 -28 76 -14 -3 -25 -3 -25 0 0 6 37 24 53 25 4 1 6
-41 5 -91z m-328 67 c0 -8 7 -15 15 -15 8 0 15 -4 15 -10 0 -5 -7 -10 -15 -10
-23 0 -21 -86 2 -99 10 -5 14 -13 10 -17 -18 -19 -42 14 -45 62 -2 27 -9 52
-15 57 -9 7 -9 10 1 14 6 2 12 11 12 19 0 8 5 14 10 14 6 0 10 -7 10 -15z
m-668 -27 c9 -7 18 -25 22 -40 6 -28 6 -28 -44 -28 -48 0 -50 -1 -40 -20 8
-14 21 -20 48 -21 35 0 35 -1 12 -10 -32 -13 -67 3 -80 36 -22 57 38 117 82
83z m78 -3 c0 -8 5 -15 10 -15 6 0 10 4 10 9 0 5 7 11 15 15 9 3 15 0 15 -9 0
-8 -7 -15 -15 -15 -20 0 -35 -32 -35 -74 0 -20 -4 -36 -10 -36 -6 0 -10 30
-10 70 0 40 4 70 10 70 6 0 10 -7 10 -15z m151 5 c13 -7 19 -7 19 0 0 5 5 10
10 10 7 0 10 -32 8 -87 -3 -85 -4 -88 -31 -101 -15 -7 -36 -10 -47 -7 -29 9
-25 23 5 17 32 -6 55 13 55 46 0 24 0 25 -20 7 -17 -15 -24 -16 -45 -7 -36 17
-38 85 -3 115 24 20 24 20 49 7z m111 -41 c6 -95 68 -93 68 2 0 27 5 49 10 49
6 0 10 -30 10 -70 0 -63 -11 -90 -23 -57 -4 10 -7 10 -18 0 -36 -34 -69 1 -69
73 0 69 18 71 22 3z m160 40 c2 -7 12 -7 30 2 43 19 58 -1 57 -75 l-2 -61 -6
50 c-8 60 -16 75 -41 75 -25 0 -40 -29 -40 -79 0 -23 -4 -41 -10 -41 -6 0 -10
30 -10 70 0 39 4 70 9 70 5 0 11 -5 13 -11z m322 -5 c17 -17 23 -124 7 -124
-5 0 -11 5 -13 11 -3 9 -9 9 -25 0 -25 -13 -49 -6 -57 15 -9 23 12 54 37 54
12 0 28 4 36 9 22 14 2 33 -30 29 -29 -5 -40 6 -16 15 24 10 46 7 61 -9z
m-644 -354 c0 -73 -2 -80 -20 -80 -18 0 -20 7 -20 80 0 73 2 80 20 80 18 0 20
-7 20 -80z m1360 1 l0 -80 -42 1 c-53 0 -68 12 -68 52 0 38 15 56 47 56 18 0
23 6 23 25 0 18 5 25 20 25 18 0 20 -7 20 -79z m480 64 c-7 -8 -19 -15 -27
-15 -13 0 -13 3 -3 15 7 8 19 15 27 15 13 0 13 -3 3 -15z m160 -64 l0 -80 -42
1 c-53 0 -68 12 -68 52 0 38 15 56 47 56 18 0 23 6 23 25 0 18 5 25 20 25 18
0 20 -7 20 -79z m190 -1 c0 -73 -2 -80 -20 -80 -18 0 -20 7 -20 80 0 73 2 80
20 80 18 0 20 -7 20 -80z m250 0 c0 -73 -2 -80 -20 -80 -18 0 -20 7 -20 80 0
73 2 80 20 80 18 0 20 -7 20 -80z m970 1 l0 -80 -42 1 c-53 0 -68 12 -68 52 0
38 15 56 47 56 18 0 23 6 23 25 0 18 5 25 20 25 18 0 20 -7 20 -79z m740 64
c0 -8 -6 -15 -14 -15 -17 0 -28 14 -19 24 12 12 33 6 33 -9z m950 -65 c0 -73
-2 -80 -20 -80 -18 0 -20 7 -20 80 0 73 2 80 20 80 18 0 20 -7 20 -80z m60 0
c0 -73 -2 -80 -20 -80 -18 0 -20 7 -20 80 0 73 2 80 20 80 18 0 20 -7 20 -80z
m-5482 54 c24 -16 31 -75 12 -104 -6 -10 -4 -20 7 -32 15 -17 14 -18 -10 -18
-15 0 -27 5 -27 10 0 6 -13 10 -30 10 -41 0 -70 31 -70 75 0 64 65 97 118 59z
m4755 0 c-4 -12 -73 -16 -73 -4 0 13 12 18 45 17 21 -1 31 -5 28 -13z m327
-46 c13 -35 25 -69 27 -75 3 -8 -3 -13 -15 -13 -11 0 -22 7 -26 15 -3 8 -17
15 -31 15 -14 0 -28 -7 -31 -15 -4 -8 -14 -15 -25 -15 -17 0 -16 5 8 75 22 62
30 75 49 75 17 0 26 -12 44 -62z m690 -13 c0 -68 -2 -75 -20 -75 -18 0 -20 7
-20 55 0 44 -3 53 -15 49 -24 -10 -18 22 8 34 43 21 47 16 47 -63z m120 0 c0
-68 -2 -75 -20 -75 -18 0 -20 7 -20 55 0 44 -3 53 -15 49 -24 -10 -18 22 8 34
43 21 47 16 47 -63z m108 63 c18 -18 14 -40 -13 -70 -36 -42 -63 -35 -30 8 21
28 19 47 -5 41 -15 -4 -20 0 -20 14 0 14 7 19 28 19 15 0 33 -5 40 -12z
m-5918 -68 c0 -29 4 -40 15 -40 11 0 15 11 15 40 0 33 3 40 20 40 18 0 20 -7
20 -54 l0 -55 -42 1 c-56 0 -68 12 -68 64 0 37 3 44 20 44 17 0 20 -7 20 -40z
m168 28 c7 -7 12 -31 12 -54 l0 -42 -40 0 c-28 -1 -43 4 -49 16 -13 25 5 52
35 52 16 0 23 4 18 11 -3 6 -17 8 -30 5 -23 -6 -32 3 -17 17 11 11 58 8 71 -5z
m242 -7 c17 -33 12 -41 -26 -41 -23 0 -33 -4 -28 -11 3 -6 17 -9 31 -6 18 3
23 0 21 -12 -4 -20 -54 -27 -74 -10 -17 14 -19 70 -2 87 19 19 66 15 78 -7z
m90 3 c0 -6 -7 -14 -15 -18 -9 -3 -15 -19 -15 -41 0 -28 -4 -35 -20 -35 -18 0
-20 7 -20 55 l0 54 35 -1 c20 -1 35 -6 35 -14z m88 4 c7 -7 12 -31 12 -54 l0
-42 -40 0 c-28 -1 -43 4 -49 16 -13 25 5 52 35 52 16 0 23 4 18 11 -3 6 -17 8
-30 5 -23 -6 -32 3 -17 17 11 11 58 8 71 -5z m183 2 c22 -12 27 -68 7 -88 -15
-15 -53 -16 -79 -2 -25 14 -26 75 -1 89 22 13 48 14 73 1z m197 -2 c6 -6 12
-30 12 -54 0 -37 -3 -44 -20 -44 -17 0 -20 7 -20 41 0 52 -24 48 -28 -4 -3
-29 -7 -37 -23 -37 -16 0 -19 7 -19 54 l0 55 43 -1 c23 0 48 -5 55 -10z m130
0 c7 -7 12 -26 12 -43 0 -17 -5 -36 -12 -43 -15 -15 -53 -16 -79 -2 -25 14
-26 75 -1 89 23 14 65 14 80 -1z m190 -1 c6 -5 12 -29 12 -53 0 -37 -3 -44
-20 -44 -17 0 -20 7 -20 41 0 52 -24 48 -28 -4 -2 -23 -8 -37 -17 -37 -9 0
-15 14 -17 37 -4 52 -28 56 -28 4 0 -34 -3 -41 -20 -41 -18 0 -20 7 -20 54 l0
54 73 0 c39 -1 78 -5 85 -11z m122 -6 c17 -33 12 -41 -26 -41 -23 0 -33 -4
-28 -11 3 -6 17 -9 31 -6 18 3 23 0 21 -12 -4 -20 -54 -27 -74 -10 -17 14 -19
70 -2 87 19 19 66 15 78 -7z m308 7 c7 -7 12 -26 12 -43 0 -17 -5 -36 -12 -43
-15 -15 -53 -16 -79 -2 -25 14 -26 75 -1 89 23 14 65 14 80 -1z m250 -1 c6 -5
12 -29 12 -53 0 -37 -3 -44 -20 -44 -17 0 -20 7 -20 41 0 52 -24 48 -28 -4 -2
-23 -8 -37 -17 -37 -9 0 -15 14 -17 37 -4 52 -28 56 -28 4 0 -34 -3 -41 -20
-41 -18 0 -20 7 -20 54 l0 54 73 0 c39 -1 78 -5 85 -11z m130 1 c7 -7 12 -26
12 -43 0 -17 -5 -36 -12 -43 -15 -15 -53 -16 -79 -2 -25 14 -26 75 -1 89 23
14 65 14 80 -1z m202 -28 c0 -29 4 -40 15 -40 11 0 15 11 15 40 0 33 3 40 20
40 18 0 20 -7 20 -54 l0 -55 -42 1 c-56 0 -68 12 -68 64 0 37 3 44 20 44 17 0
20 -7 20 -40z m248 28 c7 -7 12 -26 12 -43 0 -17 -5 -36 -12 -43 -15 -15 -53
-16 -79 -2 -25 14 -26 75 -1 89 23 14 65 14 80 -1z m192 -28 c0 -29 4 -40 15
-40 11 0 15 11 15 40 0 33 3 40 20 40 18 0 20 -7 20 -54 l0 -55 -42 1 c-56 0
-68 12 -68 64 0 37 3 44 20 44 17 0 20 -7 20 -40z m188 28 c6 -6 12 -30 12
-54 0 -37 -3 -44 -20 -44 -17 0 -20 7 -20 41 0 52 -24 48 -28 -4 -3 -29 -7
-37 -23 -37 -16 0 -19 7 -19 54 l0 55 43 -1 c23 0 48 -5 55 -10z m110 0 c7 -7
12 -31 12 -54 l0 -42 -40 0 c-28 -1 -43 4 -49 16 -13 25 5 52 35 52 16 0 23 4
18 11 -3 6 -17 8 -30 5 -23 -6 -32 3 -17 17 11 11 58 8 71 -5z m102 -4 c0 -6
-7 -14 -15 -18 -9 -3 -15 -19 -15 -41 0 -28 -4 -35 -20 -35 -18 0 -20 7 -20
55 l0 54 35 -1 c20 -1 35 -6 35 -14z m110 -24 c0 -29 4 -40 15 -40 11 0 15 11
15 40 0 33 3 40 20 40 18 0 20 -7 20 -54 l0 -55 -42 1 c-56 0 -68 12 -68 64 0
37 3 44 20 44 17 0 20 -7 20 -40z m160 26 c0 -9 -7 -12 -20 -9 -11 3 -20 0
-20 -6 0 -6 6 -11 14 -11 7 0 19 -7 27 -16 11 -14 13 -14 21 0 5 9 20 16 34
16 16 0 23 4 18 11 -3 6 -17 8 -31 4 -18 -4 -24 -2 -21 7 6 17 56 22 74 7 8
-6 14 -29 14 -54 l0 -43 -40 0 c-25 -1 -43 5 -48 14 -8 14 -10 13 -21 0 -17
-20 -71 -21 -71 -2 0 9 7 12 20 9 11 -3 20 -1 20 5 0 6 -9 14 -20 17 -19 6
-28 44 -13 58 13 13 63 7 63 -7z m358 2 c7 -7 12 -26 12 -43 0 -17 -5 -36 -12
-43 -15 -15 -53 -16 -79 -2 -25 14 -26 75 -1 89 23 14 65 14 80 -1z m190 0 c6
-6 12 -30 12 -54 0 -37 -3 -44 -20 -44 -17 0 -20 7 -20 41 0 52 -24 48 -28 -4
-3 -29 -7 -37 -23 -37 -16 0 -19 7 -19 54 l0 55 43 -1 c23 0 48 -5 55 -10z
m110 0 c7 -7 12 -31 12 -54 l0 -42 -40 0 c-28 -1 -43 4 -49 16 -13 25 5 52 35
52 16 0 23 4 18 11 -3 6 -17 8 -30 5 -23 -6 -32 3 -17 17 11 11 58 8 71 -5z
m250 -1 c6 -5 12 -29 12 -53 0 -37 -3 -44 -20 -44 -17 0 -20 7 -20 41 0 52
-24 48 -28 -4 -2 -23 -8 -37 -17 -37 -9 0 -15 14 -17 37 -4 52 -28 56 -28 4 0
-34 -3 -41 -20 -41 -18 0 -20 7 -20 54 l0 54 73 0 c39 -1 78 -5 85 -11z m72
-42 c0 -48 -2 -55 -20 -55 -18 0 -20 7 -20 55 0 48 2 55 20 55 18 0 20 -7 20
-55z m90 41 c0 -9 -7 -12 -20 -9 -11 3 -20 1 -20 -5 0 -5 9 -12 20 -15 26 -7
36 -33 20 -52 -16 -19 -70 -20 -70 -1 0 9 7 12 20 9 11 -3 20 -1 20 5 0 6 -9
14 -20 17 -19 6 -28 44 -13 58 13 13 63 7 63 -7z m90 0 c0 -9 -7 -12 -20 -9
-11 3 -20 0 -20 -6 0 -6 6 -11 14 -11 7 0 19 -7 27 -16 11 -14 13 -14 21 0 5
9 20 16 34 16 16 0 23 4 18 11 -3 6 -17 8 -31 4 -18 -4 -24 -2 -21 7 6 17 56
22 74 7 8 -6 14 -29 14 -54 l0 -43 -40 0 c-25 -1 -43 5 -48 14 -8 14 -10 13
-21 0 -17 -20 -71 -21 -71 -2 0 9 7 12 20 9 11 -3 20 -1 20 5 0 6 -9 14 -20
17 -19 6 -28 44 -13 58 13 13 63 7 63 -7z m228 2 c7 -7 12 -26 12 -43 0 -17
-5 -36 -12 -43 -15 -15 -53 -16 -79 -2 -25 14 -26 75 -1 89 23 14 65 14 80 -1z
m340 0 c17 -14 15 -73 -3 -88 -8 -7 -24 -10 -35 -7 -17 4 -20 0 -20 -24 0 -22
-5 -29 -20 -29 -18 0 -20 7 -20 79 l0 80 43 -1 c23 0 48 -5 55 -10z m130 0 c7
-7 12 -26 12 -43 0 -17 -5 -36 -12 -43 -15 -15 -53 -16 -79 -2 -25 14 -26 75
-1 89 23 14 65 14 80 -1z m250 0 c7 -7 12 -26 12 -43 0 -17 -5 -36 -12 -43
-15 -15 -53 -16 -79 -2 -25 14 -26 75 -1 89 23 14 65 14 80 -1z m382 -83 c0
-8 -6 -15 -14 -15 -17 0 -28 14 -19 24 12 12 33 6 33 -9z m1128 -927 c9 -9 12
-86 12 -283 0 -197 -3 -274 -12 -283 -17 -17 -6019 -17 -6036 0 -9 9 -12 86
-12 283 0 197 3 274 12 283 17 17 6019 17 6036 0z m-3 -953 l0 -280 -3015 0
-3015 0 -3 270 c-1 148 0 275 3 282 3 11 593 13 3017 11 l3013 -3 0 -280z m3
-387 c9 -9 12 -86 12 -283 0 -197 -3 -274 -12 -283 -17 -17 -6019 -17 -6036 0
-9 9 -12 86 -12 283 0 197 3 274 12 283 17 17 6019 17 6036 0z m0 -670 c9 -9
12 -86 12 -283 0 -197 -3 -274 -12 -283 -17 -17 -6019 -17 -6036 0 -9 9 -12
86 -12 283 0 197 3 274 12 283 17 17 6019 17 6036 0z m0 -670 c9 -9 12 -86 12
-283 0 -197 -3 -274 -12 -283 -17 -17 -6019 -17 -6036 0 -9 9 -12 86 -12 283
0 197 3 274 12 283 17 17 6019 17 6036 0z"/>
<path d="M14430 9317 c-159 -54 -280 -168 -349 -329 l-19 -45 53 -53 53 -52
70 36 c180 95 299 251 319 418 l6 48 -34 0 c-19 0 -63 -11 -99 -23z"/>
<path d="M13914 9089 c-21 -11 -46 -47 -63 -92 l-11 -27 78 0 78 0 28 57 c21
44 25 58 14 64 -18 12 -98 10 -124 -2z"/>
<path d="M14243 8802 l-53 -26 0 -78 0 -78 27 11 c48 18 81 42 92 66 18 39 12
134 -8 132 -3 0 -30 -12 -58 -27z"/>
<path d="M5899 9021 c-20 -16 -24 -28 -24 -79 0 -70 21 -102 66 -102 41 0 69
41 69 100 0 84 -57 125 -111 81z"/>
<path d="M7202 8958 c-18 -18 -15 -113 4 -129 28 -23 49 1 52 60 4 69 -23 102
-56 69z"/>
<path d="M10132 8958 c-18 -18 -15 -113 4 -129 28 -23 49 1 52 60 4 69 -23
102 -56 69z"/>
<path d="M10972 8971 c-17 -55 -15 -61 18 -61 28 0 30 2 24 28 -9 35 -23 72
-27 72 -2 0 -9 -17 -15 -39z"/>
<path d="M6886 8955 c-10 -11 -16 -34 -16 -66 0 -43 3 -51 25 -61 19 -8 28 -8
39 2 23 18 30 74 14 107 -16 33 -39 40 -62 18z"/>
<path d="M8006 8955 c-10 -11 -16 -34 -16 -66 0 -43 3 -51 25 -61 19 -8 28 -8
39 2 23 18 30 74 14 107 -16 33 -39 40 -62 18z"/>
<path d="M9470 8876 c-37 -12 -50 -48 -19 -54 22 -4 62 31 58 50 -3 14 -9 14
-39 4z"/>
<path d="M10480 8876 c-37 -12 -50 -48 -19 -54 22 -4 62 31 58 50 -3 14 -9 14
-39 4z"/>
<path d="M11321 8951 c-16 -28 -13 -94 3 -117 34 -45 82 44 55 102 -17 35 -44
42 -58 15z"/>
<path d="M11636 8954 c-10 -10 -16 -33 -16 -65 0 -43 3 -51 25 -61 37 -16 59
8 59 65 1 67 -33 97 -68 61z"/>
<path d="M12276 8955 c-10 -11 -16 -34 -16 -66 0 -43 3 -51 25 -61 19 -8 28
-8 39 2 23 18 30 74 14 107 -16 33 -39 40 -62 18z"/>
<path d="M13837 8702 c-20 -22 -56 -102 -57 -124 0 -23 24 -22 80 3 60 27 80
47 80 79 0 52 -68 80 -103 42z"/>
<path d="M5380 8449 c0 -39 1 -40 33 -37 25 2 33 8 35 26 5 30 -14 52 -44 52
-21 0 -24 -5 -24 -41z"/>
<path d="M5520 8420 c-10 -18 -8 -20 30 -20 38 0 40 2 30 20 -6 11 -19 20 -30
20 -11 0 -24 -9 -30 -20z"/>
<path d="M5765 8417 c-31 -47 19 -105 54 -63 7 8 11 30 9 48 -4 43 -39 51 -63
15z"/>
<path d="M6340 8375 c-14 -17 -5 -35 19 -35 20 0 41 19 41 37 0 18 -45 17 -60
-2z"/>
<path d="M7044 8075 c-7 -18 3 -35 22 -35 8 0 14 10 14 25 0 27 -27 35 -36 10z"/>
<path d="M7684 8075 c-7 -18 3 -35 22 -35 8 0 14 10 14 25 0 27 -27 35 -36 10z"/>
<path d="M9094 8075 c-7 -18 3 -35 22 -35 8 0 14 10 14 25 0 27 -27 35 -36 10z"/>
<path d="M5360 8111 c-14 -28 4 -71 30 -71 12 0 25 10 31 24 22 48 -36 93 -61
47z"/>
<path d="M10471 8113 c-1 -6 -4 -18 -7 -27 -4 -11 -1 -16 10 -16 18 0 19 6 6
35 -5 11 -9 15 -9 8z"/>
<path d="M5640 8050 c0 -5 4 -10 9 -10 6 0 13 5 16 10 3 6 -1 10 -9 10 -9 0
-16 -4 -16 -10z"/>
<path d="M5875 8090 c-3 -5 1 -10 9 -10 9 0 16 5 16 10 0 6 -4 10 -9 10 -6 0
-13 -4 -16 -10z"/>
<path d="M6060 8050 c0 -5 4 -10 9 -10 6 0 13 5 16 10 3 6 -1 10 -9 10 -9 0
-16 -4 -16 -10z"/>
<path d="M6234 8075 c-4 -9 -2 -21 4 -27 15 -15 44 -1 40 19 -4 23 -36 29 -44
8z"/>
<path d="M6554 8075 c-4 -9 -2 -21 4 -27 15 -15 44 -1 40 19 -4 23 -36 29 -44
8z"/>
<path d="M6875 8090 c-3 -5 1 -10 9 -10 9 0 16 5 16 10 0 6 -4 10 -9 10 -6 0
-13 -4 -16 -10z"/>
<path d="M7174 8075 c-4 -9 -2 -21 4 -27 15 -15 44 -1 40 19 -4 23 -36 29 -44
8z"/>
<path d="M7554 8075 c-4 -9 -2 -21 4 -27 15 -15 44 -1 40 19 -4 23 -36 29 -44
8z"/>
<path d="M8004 8075 c-4 -9 -2 -21 4 -27 15 -15 44 -1 40 19 -4 23 -36 29 -44
8z"/>
<path d="M8510 8050 c0 -5 4 -10 9 -10 6 0 13 5 16 10 3 6 -1 10 -9 10 -9 0
-16 -4 -16 -10z"/>
<path d="M8980 8050 c0 -5 4 -10 9 -10 6 0 13 5 16 10 3 6 -1 10 -9 10 -9 0
-16 -4 -16 -10z"/>
<path d="M9224 8075 c-4 -9 -2 -21 4 -27 15 -15 44 -1 40 19 -4 23 -36 29 -44
8z"/>
<path d="M9540 8050 c0 -5 4 -10 9 -10 6 0 13 5 16 10 3 6 -1 10 -9 10 -9 0
-16 -4 -16 -10z"/>
<path d="M10140 8050 c0 -5 4 -10 9 -10 6 0 13 5 16 10 3 6 -1 10 -9 10 -9 0
-16 -4 -16 -10z"/>
<path d="M10254 8075 c-4 -9 -2 -21 4 -27 15 -15 44 -1 40 19 -4 23 -36 29
-44 8z"/>
<path d="M10603 8074 c-8 -21 13 -42 28 -27 13 13 5 43 -11 43 -6 0 -13 -7
-17 -16z"/>
<path d="M10724 8075 c-4 -9 -2 -21 4 -27 15 -15 44 -1 40 19 -4 23 -36 29
-44 8z"/>
<path d="M10974 8075 c-4 -9 -2 -21 4 -27 15 -15 44 -1 40 19 -4 23 -36 29
-44 8z"/>
<path d="M9200 6886 c0 -2 -11 -33 -25 -70 -14 -36 -21 -66 -16 -66 5 0 13 9
16 20 9 28 60 27 75 -1 7 -11 14 -18 17 -15 8 8 -47 136 -58 136 -5 0 -9 -2
-9 -4z m29 -68 c1 -5 -8 -8 -19 -8 -23 0 -24 4 -8 33 11 21 11 21 19 2 4 -11
8 -23 8 -27z"/>
<path d="M9308 6848 c16 -45 16 -51 0 -94 -15 -42 -15 -45 -1 -31 9 9 18 39
21 69 3 43 0 58 -16 78 l-21 25 17 -47z"/>
<path d="M9410 6820 l0 -70 50 0 c28 0 50 5 50 10 0 6 -20 10 -45 10 -38 0
-45 3 -45 20 0 17 7 20 40 20 22 0 40 5 40 10 0 6 -18 10 -40 10 -33 0 -40 3
-40 20 0 17 7 20 45 20 25 0 45 5 45 10 0 6 -22 10 -50 10 l-50 0 0 -70z"/>
<path d="M9740 6820 c0 -40 4 -70 10 -70 6 0 10 30 10 70 0 40 -4 70 -10 70
-6 0 -10 -30 -10 -70z"/>
<path d="M9540 6835 c-11 -13 -8 -14 21 -10 l34 5 -33 -15 c-25 -12 -33 -21
-30 -38 2 -18 10 -22 41 -24 36 -1 37 0 37 36 0 56 -40 82 -70 46z m50 -44 c0
-15 -19 -23 -38 -16 -14 5 -14 7 -2 15 19 12 40 13 40 1z"/>
<path d="M9642 6838 c-17 -17 -15 -63 3 -78 8 -7 24 -10 36 -7 13 3 19 1 16
-6 -2 -7 -18 -11 -36 -11 -17 1 -31 -2 -31 -6 0 -13 37 -22 60 -15 17 5 20 15
20 69 0 60 -1 62 -28 64 -15 1 -33 -3 -40 -10z m56 -36 c4 -28 -24 -40 -45
-19 -14 13 -14 19 -3 32 18 22 44 15 48 -13z"/>
<path d="M9792 6838 c-7 -7 -12 -24 -12 -38 0 -14 5 -31 12 -38 16 -16 53 -15
68 3 10 12 6 13 -23 8 -20 -3 -37 -1 -41 6 -5 7 6 11 33 11 45 0 54 16 25 44
-18 19 -45 21 -62 4z m53 -18 c4 -6 -5 -10 -20 -10 -15 0 -24 4 -20 10 3 6 12
10 20 10 8 0 17 -4 20 -10z"/>
<path d="M9130 6150 l0 -70 39 0 c46 0 66 19 55 52 -4 13 -6 34 -5 47 3 29
-13 41 -56 41 l-33 0 0 -70z m75 30 c0 -10 -12 -16 -32 -18 -28 -3 -33 0 -33
18 0 18 5 21 33 18 20 -2 32 -8 32 -18z m5 -60 c0 -16 -7 -20 -35 -20 -28 0
-35 4 -35 20 0 16 7 20 35 20 28 0 35 -4 35 -20z"/>
<path d="M9268 6178 c16 -45 16 -51 0 -94 -15 -42 -15 -45 -1 -31 9 9 18 39
21 69 3 43 0 58 -16 78 l-21 25 17 -47z"/>
<path d="M9372 6148 c0 -40 3 -58 5 -40 4 29 7 32 39 32 19 0 34 5 34 10 0 6
-16 10 -35 10 -28 0 -35 4 -35 20 0 17 7 20 40 20 22 0 40 5 40 10 0 6 -20 10
-45 10 l-45 0 2 -72z"/>
<path d="M9580 6150 c0 -40 4 -70 10 -70 6 0 10 30 10 70 0 40 -4 70 -10 70
-6 0 -10 -30 -10 -70z"/>
<path d="M9490 6165 c-11 -13 -8 -14 21 -10 l34 5 -33 -15 c-25 -12 -33 -21
-30 -38 2 -18 10 -22 41 -24 36 -1 37 0 37 36 0 56 -40 82 -70 46z m50 -44 c0
-15 -19 -23 -38 -16 -14 5 -14 7 -2 15 19 12 40 13 40 1z"/>
<path d="M9632 6168 c-15 -15 -16 -60 0 -76 16 -16 43 -15 58 3 11 13 8 14
-17 9 -22 -4 -32 -2 -36 10 -11 28 4 48 30 43 15 -3 22 0 20 7 -5 16 -40 19
-55 4z"/>
<path d="M9732 6168 c-7 -7 -12 -24 -12 -38 0 -31 17 -50 45 -50 28 0 45 19
45 50 0 31 -17 50 -45 50 -12 0 -26 -5 -33 -12z m58 -23 c10 -12 10 -18 0 -30
-7 -8 -18 -15 -25 -15 -7 0 -18 7 -25 15 -10 12 -10 18 0 30 7 8 18 15 25 15
7 0 18 -7 25 -15z"/>
<path d="M9830 6129 c0 -57 17 -66 22 -12 2 27 8 39 21 41 14 3 17 -4 17 -37
0 -23 5 -41 10 -41 14 0 12 76 -2 88 -7 5 -25 10 -40 10 -27 0 -28 -3 -28 -49z"/>
<path d="M9200 5530 c-41 -41 -12 -120 43 -120 26 0 65 35 53 47 -4 5 -12 0
-17 -10 -11 -20 -49 -23 -67 -5 -7 7 -12 24 -12 38 0 14 5 31 12 38 15 15 54
16 63 2 3 -5 11 -10 17 -10 6 0 3 9 -7 20 -10 11 -29 20 -42 20 -12 0 -32 -9
-43 -20z"/>
<path d="M9338 5508 c16 -45 16 -51 0 -94 -15 -42 -15 -45 -1 -31 9 9 18 39
21 69 3 43 0 58 -16 78 l-21 25 17 -47z"/>
<path d="M9443 5480 c0 -41 2 -60 4 -42 4 29 7 32 39 32 31 0 34 -2 34 -30 0
-16 5 -30 10 -30 6 0 10 30 10 70 0 40 -4 70 -10 70 -5 0 -10 -13 -10 -30 0
-28 -3 -30 -34 -30 -32 0 -35 3 -39 33 -2 17 -4 -2 -4 -43z"/>
<path d="M9790 5480 c0 -40 4 -70 10 -70 6 0 10 12 10 28 1 26 1 26 15 8 8
-10 16 -24 18 -30 2 -6 8 -8 12 -4 4 4 0 19 -9 34 -17 24 -17 27 0 45 21 23 8
25 -18 2 -17 -15 -18 -14 -18 20 0 21 -4 37 -10 37 -6 0 -10 -30 -10 -70z"/>
<path d="M9570 5495 c-11 -13 -8 -14 21 -10 l34 5 -33 -15 c-25 -12 -33 -21
-30 -38 2 -18 10 -22 41 -24 36 -1 37 0 37 36 0 56 -40 82 -70 46z m50 -44 c0
-15 -19 -23 -38 -16 -14 5 -14 7 -2 15 19 12 40 13 40 1z"/>
<path d="M9665 5463 c8 -27 15 -49 15 -50 0 -2 4 -3 8 -3 5 0 13 17 18 38 l10
37 8 -37 c5 -21 12 -38 17 -38 5 0 9 1 9 3 0 1 7 23 15 50 8 26 10 47 6 47 -5
0 -13 -17 -18 -37 l-10 -38 -10 35 c-11 42 -25 41 -37 -2 l-9 -33 -10 38 c-5
20 -13 37 -18 37 -4 0 -2 -21 6 -47z"/>
<path d="M9060 4810 l0 -70 35 0 c64 0 97 65 59 118 -11 16 -25 22 -55 22
l-39 0 0 -70z m78 38 c7 -7 12 -24 12 -38 0 -34 -17 -50 -52 -50 -27 0 -28 2
-28 50 0 48 1 50 28 50 15 0 33 -5 40 -12z"/>
<path d="M9208 4838 c16 -45 16 -51 0 -94 -15 -42 -15 -45 -1 -31 9 9 18 39
21 69 3 43 0 58 -16 78 l-21 25 17 -47z"/>
<path d="M9322 4871 c-8 -4 -12 -19 -10 -32 2 -18 12 -26 41 -33 26 -7 37 -15
35 -25 -5 -23 -49 -26 -65 -5 -7 10 -16 15 -20 11 -11 -11 28 -47 52 -47 31 0
58 23 54 46 -3 12 -19 24 -47 33 -24 7 -41 18 -39 25 5 16 46 20 63 5 21 -17
28 -5 9 15 -18 17 -52 21 -73 7z"/>
<path d="M9430 4768 c0 -39 4 -68 10 -68 6 0 10 11 10 24 0 19 4 23 20 19 28
-7 50 14 50 47 0 35 -17 49 -58 48 l-32 -1 0 -69z m70 37 c10 -12 10 -18 0
-30 -25 -30 -61 -7 -46 30 3 8 12 15 19 15 8 0 20 -7 27 -15z"/>
<path d="M9550 4825 c-11 -13 -8 -14 21 -10 l34 5 -33 -15 c-25 -12 -33 -21
-30 -38 2 -18 10 -22 41 -24 36 -1 37 0 37 36 0 56 -40 82 -70 46z m50 -44 c0
-15 -19 -23 -38 -16 -14 5 -14 7 -2 15 19 12 40 13 40 1z"/>
<path d="M9640 4789 c0 -27 5 -49 10 -49 6 0 10 18 10 40 0 29 4 40 15 40 8 0
15 4 15 9 0 5 -11 9 -25 9 -23 0 -25 -4 -25 -49z"/>
<path d="M9700 4789 c0 -27 5 -49 10 -49 6 0 10 18 10 40 0 29 4 40 15 40 8 0
15 4 15 9 0 5 -11 9 -25 9 -23 0 -25 -4 -25 -49z"/>
<path d="M9772 4828 c-7 -7 -12 -24 -12 -38 0 -31 17 -50 45 -50 28 0 45 19
45 50 0 31 -17 50 -45 50 -12 0 -26 -5 -33 -12z m58 -23 c10 -12 10 -18 0 -30
-7 -8 -18 -15 -25 -15 -7 0 -18 7 -25 15 -10 12 -10 18 0 30 7 8 18 15 25 15
7 0 18 -7 25 -15z"/>
<path d="M9875 4793 c8 -27 15 -49 15 -50 0 -2 4 -3 8 -3 5 0 13 17 18 38 l10
37 8 -37 c5 -21 12 -38 17 -38 5 0 9 1 9 3 0 1 7 23 15 50 8 26 10 47 6 47 -5
0 -13 -17 -18 -37 l-10 -38 -10 35 c-11 42 -25 41 -37 -2 l-9 -33 -10 38 c-5
20 -13 37 -18 37 -4 0 -2 -21 6 -47z"/>
<path d="M9110 4140 l0 -70 50 0 c28 0 50 5 50 10 0 6 -20 10 -45 10 -38 0
-45 3 -45 20 0 17 7 20 40 20 22 0 40 5 40 10 0 6 -18 10 -40 10 -33 0 -40 3
-40 20 0 17 7 20 45 20 25 0 45 5 45 10 0 6 -22 10 -50 10 l-50 0 0 -70z"/>
<path d="M9248 4168 c16 -45 16 -51 0 -94 -15 -42 -15 -45 -1 -31 9 9 18 39
21 69 3 43 0 58 -16 78 l-21 25 17 -47z"/>
<path d="M9360 4190 c-41 -41 -12 -120 45 -120 14 0 34 9 45 20 41 41 12 120
-45 120 -14 0 -34 -9 -45 -20z m78 -12 c7 -7 12 -24 12 -38 0 -31 -17 -50 -45
-50 -28 0 -45 19 -45 50 0 31 17 50 45 50 12 0 26 -5 33 -12z"/>
<path d="M9494 4156 c-8 -21 13 -46 37 -46 11 0 19 -5 19 -11 0 -7 -11 -9 -30
-5 -33 6 -42 -9 -10 -19 55 -18 85 34 30 54 -37 12 -40 25 -5 18 16 -3 24 0
22 7 -6 18 -56 20 -63 2z"/>
<path d="M9590 4098 c0 -39 4 -68 10 -68 6 0 10 11 10 24 0 19 4 23 20 19 28
-7 50 14 50 47 0 35 -17 49 -58 48 l-32 -1 0 -69z m70 37 c10 -12 10 -18 0
-30 -25 -30 -61 -7 -46 30 3 8 12 15 19 15 8 0 20 -7 27 -15z"/>
<path d="M9700 4119 c0 -27 5 -49 10 -49 6 0 10 18 10 40 0 29 4 40 15 40 8 0
15 4 15 9 0 5 -11 9 -25 9 -23 0 -25 -4 -25 -49z"/>
<path d="M9772 4158 c-7 -7 -12 -24 -12 -38 0 -14 5 -31 12 -38 16 -16 53 -15
68 3 10 12 6 13 -23 8 -20 -3 -37 -1 -41 6 -5 7 6 11 33 11 45 0 54 16 25 44
-18 19 -45 21 -62 4z m53 -18 c4 -6 -5 -10 -20 -10 -15 0 -24 4 -20 10 3 6 12
10 20 10 8 0 17 -4 20 -10z"/>
<path d="M9870 4165 c0 -5 8 -29 17 -53 16 -42 16 -45 0 -57 -21 -15 -22 -25
-3 -25 15 0 18 6 46 88 11 28 15 52 10 52 -5 0 -14 -17 -21 -37 l-12 -38 -11
32 c-11 32 -26 54 -26 38z"/>
</g>
</svg>
